<?xml version="1.0" standalone="no"?>
<!DOCTYPE svg PUBLIC "-//W3C//DTD SVG 20010904//EN"
 "http://www.w3.org/TR/2001/REC-SVG-20010904/DTD/svg10.dtd">
<svg version="1.0" xmlns="http://www.w3.org/2000/svg"
 width="512.000000pt" height="512.000000pt" viewBox="0 0 512.000000 512.000000"
 preserveAspectRatio="xMidYMid meet">
<metadata>
Created by potrace 1.14, written by Peter Selinger 2001-2017
</metadata>
<g transform="translate(0.000000,512.000000) scale(0.100000,-0.100000)"
fill="#000000" stroke="none">
<path d="M3080 5010 c-27 -27 -26 -74 2 -100 25 -23 40 -25 71 -9 29 16 37 28
37 62 0 34 -32 67 -65 67 -14 0 -34 -9 -45 -20z m71 -10 c29 -16 26 -67 -5
-81 -34 -16 -66 3 -66 41 0 41 33 60 71 40z"/>
<path d="M3529 4964 c-9 -11 -10 -20 -2 -32 15 -24 44 -27 59 -7 28 38 -27 75
-57 39z m54 -6 c7 -21 -4 -38 -23 -38 -23 0 -34 16 -26 35 7 18 43 20 49 3z"/>
<path d="M1709 4851 c-79 -50 -154 -161 -180 -267 -6 -27 -20 -58 -29 -69 -40
-45 -54 -90 -58 -182 -2 -51 -8 -93 -13 -93 -5 0 -18 -15 -29 -32 -22 -37 -28
-156 -10 -217 7 -26 6 -41 -7 -64 -23 -46 -13 -164 21 -249 25 -63 26 -69 12
-90 -18 -25 -20 -83 -6 -146 10 -42 10 -42 -51 -115 -140 -165 -149 -252 -43
-383 24 -30 44 -56 44 -59 0 -2 -30 -42 -67 -87 -173 -214 -258 -386 -323
-651 -37 -150 -50 -170 -119 -178 -92 -12 -125 -53 -102 -129 18 -59 92 -152
165 -206 36 -27 66 -52 66 -56 0 -4 -11 -10 -25 -14 -30 -7 -31 -19 -5 -61 38
-63 103 -71 131 -16 l16 33 42 -30 c40 -29 41 -32 41 -88 0 -65 -24 -115 -65
-134 -37 -17 -78 5 -142 78 -53 61 -84 77 -99 53 -13 -22 20 -90 82 -167 41
-52 74 -106 93 -156 61 -153 119 -254 207 -364 36 -45 42 -57 37 -86 -15 -93
86 -135 279 -115 106 11 173 29 235 64 42 23 46 24 69 8 14 -9 23 -19 22 -23
-2 -4 -32 -31 -68 -59 -121 -97 -164 -174 -141 -251 16 -53 62 -104 112 -124
53 -21 171 -29 279 -19 83 9 87 8 210 -33 167 -57 258 -74 387 -74 563 1 1110
305 1428 793 280 431 351 978 189 1476 -44 137 -147 341 -232 461 -85 120
-290 326 -407 408 -217 153 -444 247 -720 299 -169 32 -540 19 -676 -23 -14
-4 -17 8 -21 75 -6 99 -20 123 -85 142 -99 29 -343 11 -343 -26 0 -23 12 -24
85 -4 79 20 190 24 232 8 110 -42 96 -146 -39 -286 -119 -122 -324 -244 -493
-292 -38 -11 -60 -20 -49 -20 27 -1 185 44 241 69 38 17 41 17 33 2 -14 -26
-72 -321 -66 -337 6 -17 -69 -35 -157 -36 l-62 -1 50 -9 c218 -38 620 164 721
362 38 76 34 119 -20 226 l-45 90 52 11 c86 19 196 34 210 29 6 -3 -2 -6 -20
-6 l-31 -1 19 -40 c10 -21 19 -44 19 -49 0 -6 56 -10 148 -10 389 0 786 -125
1070 -337 39 -30 72 -55 72 -57 0 -1 -12 -3 -27 -4 -147 -8 -216 -16 -272 -34
-213 -65 -456 -72 -629 -17 -18 5 -40 11 -47 12 -8 1 -18 5 -21 9 -4 4 -16 7
-27 7 -30 0 -172 66 -279 131 l-67 40 -78 -78 c-88 -89 -196 -164 -328 -228
-303 -147 -573 -173 -587 -57 -3 24 -10 16 -64 -68 -218 -337 -307 -704 -196
-804 l21 -18 -21 -22 c-93 -98 -7 -274 182 -375 l59 -31 -25 -53 c-45 -101
-49 -200 -10 -274 42 -80 154 -146 272 -162 38 -4 58 -9 43 -10 -14 0 -30 -6
-37 -13 -7 -7 -12 -9 -12 -5 0 3 -12 -5 -26 -18 -15 -14 -30 -22 -35 -19 -5 3
-9 0 -9 -7 0 -7 -8 -9 -21 -6 -32 9 -11 -8 47 -37 45 -23 62 -25 146 -23 100
2 128 -7 128 -44 0 -62 -339 -154 -443 -120 -47 16 -58 36 -50 98 3 28 1 53
-3 56 -5 3 -8 -13 -7 -36 1 -23 -1 -31 -4 -18 -2 13 -36 61 -75 105 -82 95
-188 250 -218 320 -11 27 -33 65 -49 85 -15 20 -37 49 -47 66 l-19 30 32 -23
c54 -38 116 -62 163 -62 l46 0 12 94 c21 156 -4 201 -151 272 -90 44 -168 119
-211 205 -45 91 -30 160 31 144 77 -19 91 -18 107 7 10 15 22 74 30 144 29
240 141 483 334 725 l60 77 -65 97 c-53 80 -65 105 -65 137 1 51 43 125 110
193 52 52 56 54 73 39 17 -15 16 -18 -17 -66 -19 -28 -34 -63 -34 -78 0 -39
41 -70 93 -70 38 0 39 1 33 28 -18 70 -18 142 -2 167 21 31 21 31 -11 30 -78
-1 -109 190 -42 261 21 22 21 22 1 29 -33 10 -65 88 -70 172 -4 65 -2 78 16
103 l22 29 -20 43 c-46 102 -2 248 76 248 12 0 10 6 -10 31 -66 79 7 251 117
275 28 6 29 7 11 16 -49 26 -57 75 -23 144 42 89 143 154 254 164 l70 7 -81 2
c-72 1 -84 -2 -125 -28z m914 -1428 c-7 -2 -19 -2 -25 0 -7 3 -2 5 12 5 14 0
19 -2 13 -5z m-394 -123 c33 -127 33 -128 10 -85 -29 54 -69 95 -91 95 -17 0
-15 6 13 45 18 25 36 42 39 38 4 -5 17 -46 29 -93z m-113 -1133 c82 -159 127
-364 106 -473 -21 -102 -113 -215 -223 -274 -110 -58 -275 -75 -426 -44 -83
17 -179 50 -188 64 -3 5 8 16 25 25 16 8 45 29 64 45 l34 30 40 -40 c35 -35
45 -40 85 -40 74 0 127 61 127 147 l0 23 -32 -20 c-42 -25 -89 -25 -119 -1
-18 15 -22 24 -14 35 107 163 339 475 420 564 54 60 48 63 101 -41z m966 -434
c49 -49 94 -96 99 -105 6 -12 4 -30 -6 -55 l-16 -38 29 28 c37 35 78 35 128
-1 77 -56 138 -143 174 -247 43 -126 11 -245 -47 -172 -18 23 -18 23 -15 -47
3 -60 1 -75 -17 -97 -27 -35 -297 -223 -364 -254 -55 -26 -125 -32 -158 -15
-15 8 -19 7 -19 -3 0 -47 -142 -134 -330 -202 -58 -22 -119 -51 -136 -65 -17
-15 -51 -32 -76 -38 -25 -7 -74 -25 -109 -42 -35 -16 -78 -30 -95 -30 -44 0
-82 34 -95 85 -7 28 -21 50 -40 64 -29 21 -89 97 -89 111 0 4 46 43 103 88
160 125 231 191 295 272 32 41 99 120 148 175 49 55 126 145 169 200 44 55
128 147 187 205 110 108 158 182 158 243 0 46 27 32 122 -60z m-1735 -1115
c-3 -7 -5 -2 -5 12 0 14 2 19 5 13 2 -7 2 -19 0 -25z m24 -35 c13 -16 12 -17
-3 -4 -17 13 -22 21 -14 21 2 0 10 -8 17 -17z"/>
<path d="M3979 4841 c-37 -37 -38 -79 -3 -120 20 -25 34 -31 64 -31 84 0 123
101 59 154 -41 35 -83 34 -120 -3z m105 -17 c9 -8 16 -28 16 -44 0 -36 -23
-60 -57 -60 -55 0 -83 62 -46 102 20 22 66 24 87 2z"/>
<path d="M3442 4650 c-7 -36 -15 -73 -18 -82 -8 -25 -35 -22 -42 5 -6 20 -7
20 -12 -8 -7 -41 -38 -40 -65 2 -23 38 -38 42 -30 11 11 -53 13 -76 4 -89 -10
-15 -36 9 -86 76 l-22 30 -1 -36 c0 -20 -7 -42 -15 -49 -13 -11 -11 -17 15
-47 33 -37 38 -61 15 -69 -29 -11 -82 18 -171 94 -129 110 -142 117 -41 20 67
-64 87 -89 87 -110 0 -15 5 -39 12 -53 9 -21 9 -31 0 -46 -7 -10 -12 -28 -12
-39 0 -15 -7 -20 -25 -20 -15 0 -25 -6 -25 -14 0 -19 -43 -28 -99 -20 l-46 7
24 -20 25 -20 -25 -13 c-13 -7 -44 -19 -69 -26 l-45 -12 63 -1 c72 -1 80 -14
32 -54 l-29 -25 59 5 c57 6 60 5 60 -17 0 -14 -26 -49 -72 -97 l-73 -75 83 56
c45 31 89 56 97 56 23 0 18 -21 -12 -53 -16 -17 -22 -27 -15 -23 7 4 23 1 36
-8 23 -15 24 -14 61 66 l39 81 -33 28 c-18 15 -66 38 -106 51 l-72 23 85 17
c65 13 91 23 109 43 15 15 35 25 52 25 52 0 75 52 51 114 -10 27 -2 34 17 15
6 -6 26 -9 44 -7 48 4 61 35 55 128 -3 51 -1 68 5 51 15 -38 49 -81 65 -81 8
0 23 14 34 32 l19 32 -6 -55 c-4 -44 -2 -57 11 -68 15 -12 22 -12 51 2 27 13
36 25 45 59 6 24 14 54 18 68 5 16 23 33 52 47 57 28 78 29 25 1 -52 -27 -56
-35 -49 -84 5 -34 1 -49 -21 -83 -49 -73 -15 -88 125 -51 109 29 108 24 -2
-14 -118 -40 -150 -60 -146 -89 4 -29 46 -42 190 -60 l113 -15 -110 -3 c-60
-1 -131 -1 -156 0 -55 3 -65 -8 -44 -49 16 -31 27 -35 113 -44 49 -5 83 -19
167 -70 26 -16 24 -13 -11 21 -22 22 -47 42 -55 45 -32 12 8 23 94 28 88 5 90
6 42 13 -125 19 -126 20 -50 29 39 4 108 16 155 27 70 16 78 19 45 20 -22 1
-54 -3 -71 -8 -22 -6 -58 -3 -120 10 -49 10 -108 19 -131 19 -57 0 -61 14 -10
40 36 19 38 21 12 15 -19 -3 -38 0 -49 8 -19 14 -19 15 0 24 10 6 37 14 59 18
22 4 60 13 85 22 54 17 202 85 197 90 -2 1 -33 -9 -68 -23 -46 -19 -85 -27
-139 -29 -41 -1 -100 -6 -131 -10 -80 -11 -84 5 -18 67 52 48 53 49 17 32 -46
-22 -70 -13 -66 23 2 19 14 34 37 48 18 11 57 41 85 66 28 26 73 61 100 78 33
20 43 31 30 31 -26 -1 -101 -36 -142 -66 -18 -14 -50 -30 -70 -36 -25 -7 -54
-29 -89 -66 -68 -74 -76 -66 -83 76 l-5 107 -13 -65z m-5 -132 c-3 -8 -6 -5
-6 6 -1 11 2 17 5 13 3 -3 4 -12 1 -19z"/>
<path d="M3825 4469 c-4 -6 -5 -12 -2 -15 2 -3 7 2 10 11 7 17 1 20 -8 4z"/>
<path d="M4166 4219 c-32 -25 -35 -70 -6 -99 41 -41 110 -10 110 48 0 33 -8
45 -37 61 -30 15 -36 14 -67 -10z m65 -9 c29 -16 26 -67 -5 -81 -50 -23 -90
36 -50 75 18 19 28 20 55 6z"/>
<path d="M2372 4167 c-61 -65 22 -153 96 -101 15 11 22 25 22 50 0 67 -73 99
-118 51z m83 -13 c19 -20 16 -63 -6 -77 -26 -16 -68 0 -75 29 -12 48 46 83 81
48z"/>
<path d="M3438 4044 c-17 -17 -6 -63 32 -128 22 -37 40 -71 40 -74 0 -2 -18
16 -40 41 -51 57 -125 107 -161 107 -35 0 -59 -32 -59 -80 0 -34 -1 -33 -25
25 -22 54 -46 85 -66 85 -28 0 -129 -137 -129 -176 0 -8 -9 -34 -21 -57 -20
-40 -18 -39 41 26 65 71 84 80 95 46 6 -17 9 -18 22 -7 12 10 17 10 27 -2 6
-8 20 -20 31 -26 11 -6 46 -60 78 -120 l58 -109 -7 67 c-3 37 -4 78 0 92 7 28
33 41 51 26 10 -8 12 -1 8 33 -9 80 31 72 151 -30 129 -109 134 -113 78 -45
-53 64 -112 168 -112 197 0 27 53 17 150 -30 51 -25 95 -44 97 -41 2 2 -23 25
-56 51 -34 27 -61 52 -61 56 0 22 29 16 118 -25 85 -39 114 -46 206 -56 59 -7
110 -10 112 -7 5 4 -238 85 -259 86 -4 1 -35 15 -70 33 -57 30 -70 33 -157 33
-52 1 -111 4 -130 9 -19 4 -38 4 -42 0z"/>
<path d="M4230 3825 c-26 -32 13 -81 48 -59 23 15 26 38 7 58 -20 20 -39 20
-55 1z m50 -11 c11 -12 10 -18 -3 -31 -8 -9 -23 -13 -31 -10 -19 8 -21 43 -3
50 20 9 24 8 37 -9z"/>
<path d="M2673 3814 c-21 -9 -16 -62 7 -74 33 -17 62 4 58 43 -2 26 -8 32 -28
34 -14 1 -31 -1 -37 -3z m52 -34 c0 -18 -6 -26 -23 -28 -13 -2 -25 3 -28 12
-10 26 4 48 28 44 17 -2 23 -10 23 -28z"/>
<path d="M3782 3774 c-27 -19 -29 -64 -4 -87 26 -24 68 -21 86 5 21 30 20 54
-4 78 -24 24 -48 25 -78 4z m68 -19 c7 -9 10 -25 6 -40 -6 -22 -11 -26 -39
-23 -25 2 -33 8 -35 26 -7 44 41 70 68 37z"/>
<path d="M3075 3735 c-46 -45 -19 -115 45 -115 65 0 94 79 44 119 -35 27 -59
26 -89 -4z m76 -14 c20 -16 22 -23 14 -47 -18 -51 -95 -40 -95 13 0 15 35 53
49 53 5 0 19 -9 32 -19z"/>
<path d="M2850 3609 c0 -5 5 -7 10 -4 6 3 10 8 10 11 0 2 -4 4 -10 4 -5 0 -10
-5 -10 -11z"/>
<path d="M1865 3533 c-16 -2 -35 -11 -42 -20 -10 -13 -7 -22 16 -52 16 -20 39
-58 52 -84 13 -26 28 -47 35 -47 13 0 62 58 83 97 16 32 14 68 -7 86 -20 18
-88 28 -137 20z"/>
<path d="M3397 3412 c-22 -24 -22 -66 -1 -87 25 -25 75 -16 93 17 14 25 14 29
-5 55 -26 34 -64 41 -87 15z m77 -24 c24 -40 -44 -80 -71 -42 -17 23 -16 29 3
49 20 20 53 16 68 -7z"/>
<path d="M2438 3303 c7 -3 16 -2 19 1 4 3 -2 6 -13 5 -11 0 -14 -3 -6 -6z"/>
<path d="M1453 3003 c15 -2 37 -2 50 0 12 2 0 4 -28 4 -27 0 -38 -2 -22 -4z"/>
<path d="M1480 846 c0 -2 8 -10 18 -17 15 -13 16 -12 3 4 -13 16 -21 21 -21
13z"/>
</g>
</svg>
