<svg>
	<symbol id="pentagram" enable-background="new 0 0 512 512" xmlns="http://www.w3.org/2000/svg" viewBox="0 0 512 512">
		<path
			d="m422.86 449.559c54.546-46.983 89.14-116.52 89.14-193.989 0-20.283-2.383-40.019-6.863-58.953l-133.055 96.669z">
		</path>
		<path d="m256 33.11-40.199 123.717h80.398z"></path>
		<path d="m123.013 474.242c38.783 23.674 84.32 37.328 132.987 37.328s94.204-13.655 132.987-37.328l-132.987-96.618z">
		</path>
		<path d="m492.181 156.827c-36.154-86.154-118.123-148.501-215.256-156.397l50.818 156.397z"></path>
		<path d="m174.509 186.827h-130.082l105.238 76.459z"></path>
		<path d="m235.075.43c-97.133 7.896-179.102 70.243-215.256 156.397h164.438z"></path>
		<path
			d="m6.863 196.617c-4.48 18.935-6.863 38.67-6.863 58.953 0 77.469 34.594 147.006 89.14 193.989l50.778-156.273z">
		</path>
		<path d="m337.491 186.827 24.844 76.459 105.238-76.459z"></path>
		<path d="m281.52 359.083 105.242 76.461-40.199-123.717z"></path>
		<path d="m125.238 435.544 105.242-76.461-65.043-47.256z"></path>
		<path d="m305.947 186.827h-99.894l-30.868 95 80.815 58.715 80.815-58.715z"></path>
	</symbol>
</svg>