<svg xmlns="http://www.w3.org/2000/svg" id="en" viewBox="0 0 511.5 511.5">
	<path
		d="m346.315 168h-181.63c-29.326 0-53.185 23.859-53.185 53.185v69.63c0 29.326 23.859 53.185 53.185 53.185h181.63c29.326 0 53.185-23.859 53.185-53.185v-69.63c0-29.326-23.859-53.185-53.185-53.185zm-114.815 80c4.418 0 8 3.582 8 8s-3.582 8-8 8h-40v40h40c4.418 0 8 3.582 8 8s-3.582 8-8 8h-48c-4.418 0-8-3.582-8-8v-112c0-4.418 3.582-8 8-8h48c4.418 0 8 3.582 8 8s-3.582 8-8 8h-40v40zm104 64c0 8.41-11.394 11.102-15.155 3.578l-40.845-81.689v78.111c0 4.418-3.582 8-8 8s-8-3.582-8-8v-112c0-8.409 11.395-11.101 15.155-3.578l40.845 81.689v-78.111c0-4.418 3.582-8 8-8s8 3.582 8 8z" />
	<path
		d="m255.5 40c-119.294 0-216 96.706-216 216s96.706 216 216 216 216-96.706 216-216-96.707-216-216-216zm90.815 320h-181.63c-38.149 0-69.185-31.036-69.185-69.185v-69.63c0-38.149 31.036-69.185 69.185-69.185h181.63c38.149 0 69.185 31.036 69.185 69.185v69.63c0 38.149-31.036 69.185-69.185 69.185z" />
	<path
		d="m255.75 511.5c-141.345 0-255.75-114.385-255.75-255.75 0-141.345 114.385-255.75 255.75-255.75 141.345 0 255.75 114.385 255.75 255.75 0 141.345-114.385 255.75-255.75 255.75zm0-495.5c-132.199 0-239.75 107.551-239.75 239.75s107.551 239.75 239.75 239.75 239.75-107.551 239.75-239.75-107.551-239.75-239.75-239.75z" />
</svg>