<svg id="restart-game" xmlns="http://www.w3.org/2000/svg" viewBox="0 0 511.81 511.95">
	<path
		d="M255.91,512A256,256,0,0,1,75,75,255.94,255.94,0,0,1,436.86,437,254.2,254.2,0,0,1,255.91,512Zm0-481.95C131.34,30,30,131.37,30,256S131.34,482,255.91,482,481.82,380.58,481.82,256,380.48,30,255.91,30Z" />
	<path
		d="M418.57,448.74a15,15,0,0,1-8-2.3L255.91,349,101.23,446.43a15,15,0,0,1-22-18.12L241.93,9.57a15,15,0,0,1,27.95,0L432.55,428.31a15,15,0,0,1-14,20.43ZM255.91,316.28a15,15,0,0,1,8,2.31l124.26,78.27L255.91,56.41,123.66,396.86l124.26-78.27A15,15,0,0,1,255.91,316.28Z" />
	<path
		d="M255.91,346.28a15,15,0,0,1-8.24-2.47L18.75,193.2A15,15,0,0,1,27,165.67H484.82a15,15,0,0,1,8.24,27.53L264.15,343.81A15,15,0,0,1,255.91,346.28ZM77.07,195.67,255.91,313.33,434.74,195.67Z" />
</svg>