<svg id="ru" xmlns="http://www.w3.org/2000/svg" viewBox="0 0 511.5 511.5">
	<path
		d="m346.314 168h-181.629c-29.326 0-53.185 23.859-53.185 53.185v69.63c0 29.326 23.859 53.185 53.185 53.185h181.629c29.326 0 53.186-23.859 53.186-53.185v-69.63c0-29.326-23.859-53.185-53.186-53.185zm-106.814 63.06c0 14.191-8.881 26.315-21.295 30.939l19.692 46.904c2.219 5.286-1.691 11.099-7.373 11.099-3.125 0-6.094-1.843-7.38-4.905l-21.452-51.097h-10.192v48c0 4.418-3.582 8-8 8s-8-3.582-8-8v-112c0-4.418 3.582-8 8-8h23.569c17.883 0 32.431 14.777 32.431 32.94zm96 44.94c0 24.262-16.149 44-36 44s-36-19.738-36-44v-76c0-4.418 3.582-8 8-8s8 3.582 8 8v76c0 15.178 9.159 28 20 28s20-12.822 20-28v-76c0-4.418 3.582-8 8-8s8 3.582 8 8z"
		fill="#000000" style="fill: rgb(0, 0, 0);"></path>
	<path
		d="m207.069 208h-15.569v40c21.271 0 13.999-.009 15.558 0 9.159 0 16.442-7.685 16.442-16.94v-6.12c0-9.341-7.371-16.94-16.431-16.94z"
		fill="#000000" style="fill: rgb(0, 0, 0);"></path>
	<path
		d="m255.5 40c-119.293 0-216 96.706-216 216s96.707 216 216 216 216-96.706 216-216-96.707-216-216-216zm90.814 320h-181.629c-38.149 0-69.185-31.036-69.185-69.185v-69.63c0-38.149 31.036-69.185 69.185-69.185h181.629c38.149 0 69.186 31.036 69.186 69.185v69.63c0 38.149-31.036 69.185-69.186 69.185z"
		fill="#000000" style="fill: rgb(0, 0, 0);"></path>
	<path
		d="m255.75 511.5c-141.345 0-255.75-114.385-255.75-255.75 0-141.345 114.385-255.75 255.75-255.75 141.345 0 255.75 114.385 255.75 255.75 0 141.345-114.385 255.75-255.75 255.75zm0-495.5c-132.199 0-239.75 107.551-239.75 239.75s107.551 239.75 239.75 239.75c132.198 0 239.75-107.551 239.75-239.75s-107.552-239.75-239.75-239.75z"
		fill="#000000" style="fill: rgb(0, 0, 0);"></path>
</svg>