<?xml version="1.0" standalone="no"?>
<!DOCTYPE svg PUBLIC "-//W3C//DTD SVG 20010904//EN"
 "http://www.w3.org/TR/2001/REC-SVG-20010904/DTD/svg10.dtd">
<svg version="1.0" xmlns="http://www.w3.org/2000/svg"
 width="647.000000pt" height="647.000000pt" viewBox="0 0 647.000000 647.000000"
 preserveAspectRatio="xMidYMid meet">
<metadata>
Created by potrace 1.14, written by Peter Selinger 2001-2017
</metadata>
<g transform="translate(0.000000,647.000000) scale(0.100000,-0.100000)"
fill="#000000" stroke="none">
<path d="M965 6231 c0 -186 3 -245 13 -249 9 -3 12 50 10 245 l-3 248 -5 -245
-5 -245 -5 245 -6 245 1 -244z"/>
<path d="M1514 6225 c0 -137 2 -195 3 -128 2 67 2 179 0 250 -1 70 -3 16 -3
-122z"/>
<path d="M2965 6231 c0 -186 3 -245 13 -249 9 -3 12 50 10 245 l-3 248 -5
-245 -5 -245 -5 245 -6 245 1 -244z"/>
<path d="M3514 6225 c0 -137 2 -195 3 -128 2 67 2 179 0 250 -1 70 -3 16 -3
-122z"/>
<path d="M4965 6231 c0 -186 3 -245 13 -249 9 -3 12 50 10 245 l-3 248 -5
-245 -5 -245 -5 245 -6 245 1 -244z"/>
<path d="M5514 6225 c0 -137 2 -195 3 -128 2 67 2 179 0 250 -1 70 -3 16 -3
-122z"/>
<path d="M5213 6073 c-8 -3 -13 -23 -13 -53 0 -27 -4 -51 -9 -54 -9 -6 -6
-157 5 -254 5 -44 3 -56 -12 -67 -16 -11 -20 -10 -30 4 -7 9 -16 12 -21 8 -4
-5 4 -19 20 -31 27 -22 36 -62 19 -82 -5 -5 -15 -28 -22 -51 -7 -24 -21 -50
-32 -59 -10 -10 -18 -23 -18 -29 0 -7 -11 -20 -25 -29 -14 -9 -25 -25 -25 -36
0 -11 -5 -20 -11 -20 -6 0 -24 -9 -40 -21 -16 -11 -29 -16 -29 -10 0 5 4 12 9
15 4 3 9 35 10 72 1 49 -2 65 -11 61 -9 -3 -13 -24 -12 -65 0 -34 -3 -59 -8
-56 -5 3 -6 -6 -2 -20 7 -29 -2 -32 -30 -11 -14 11 -23 12 -33 4 -7 -6 -10
-15 -7 -20 3 -5 -2 -6 -10 -3 -11 4 -16 0 -16 -11 0 -9 5 -13 10 -10 6 3 10
-4 10 -18 0 -20 4 -23 25 -19 14 2 25 0 25 -4 0 -5 15 -10 33 -10 50 -2 140
-28 145 -42 2 -8 -2 -10 -14 -5 -11 4 -15 3 -11 -4 10 -17 46 -23 40 -7 -5 13
49 -10 89 -38 14 -10 20 -10 30 0 10 10 10 15 -2 22 -12 8 -11 12 7 30 13 11
32 53 44 93 12 39 30 80 41 90 20 17 20 17 -6 43 -25 26 -36 51 -16 39 9 -5
15 15 11 37 0 4 8 12 19 18 25 14 26 40 1 40 -10 0 -24 7 -31 15 -13 15 -8 19
22 16 12 -2 19 8 23 33 8 38 0 60 -17 50 -7 -5 -9 1 -5 17 3 13 2 33 -3 44 -4
11 -2 31 4 45 11 24 11 24 17 -10 6 -30 6 -29 4 9 -2 31 -9 49 -23 60 -14 11
-23 33 -28 66 -3 28 -11 54 -18 58 -6 5 36 7 94 5 58 -2 98 -2 89 0 -10 2 -19
12 -22 23 -5 17 -13 19 -89 17 l-83 -2 83 -3 c46 -2 82 -8 82 -14 0 -6 -32 -9
-82 -7 -80 3 -82 4 -100 35 -10 17 -22 49 -26 70 -4 25 -12 38 -19 36z m-236
-705 c-2 -13 -4 -3 -4 22 0 25 2 35 4 23 2 -13 2 -33 0 -45z m278 -56 c-3 -3
-11 0 -18 7 -9 10 -8 11 6 5 10 -3 15 -9 12 -12z"/>
<path d="M2335 5990 c3 -5 -3 -15 -15 -22 -11 -7 -20 -21 -20 -30 0 -17 -34
-85 -79 -158 -21 -34 -21 -34 -21 -9 0 15 -7 30 -16 33 -8 3 -12 10 -9 16 3 5
1 10 -4 10 -6 0 -11 -7 -11 -15 0 -8 4 -15 9 -15 5 0 11 -11 13 -25 5 -23 -5
-35 -15 -17 -2 4 -2 1 -1 -6 5 -20 -36 -91 -57 -97 -10 -4 -26 -14 -35 -23
-10 -9 -31 -22 -48 -28 -23 -8 -32 -18 -34 -37 -2 -15 -8 -27 -13 -27 -6 0
-27 -13 -47 -29 -45 -36 -86 -53 -98 -41 -12 12 -35 -3 -38 -25 -3 -24 -74
-50 -97 -36 -13 7 -21 2 -38 -30 -28 -49 -81 -88 -81 -60 0 5 9 13 21 16 11 4
18 9 16 11 -9 10 -86 -28 -91 -44 -4 -13 -5 -12 -4 3 0 11 -1 45 -3 75 -2 48
-3 45 -8 -30 l-6 -85 -36 -17 c-19 -9 -41 -23 -48 -32 -8 -9 -21 -16 -30 -16
-9 0 -23 -6 -30 -12 -10 -11 -14 -10 -22 5 -17 30 -36 19 -48 -30 -17 -65 -38
-103 -55 -97 -9 3 -21 -9 -32 -33 -15 -29 -25 -38 -44 -38 -33 0 -73 -36 -64
-59 8 -20 -29 -101 -52 -114 -11 -6 -15 -16 -10 -27 3 -10 1 -24 -5 -31 -15
-19 -34 2 -53 58 -14 42 -32 317 -20 305 4 -3 13 1 21 9 11 11 14 26 9 52 -4
31 -2 40 15 50 13 8 18 19 14 31 -3 10 1 24 10 31 8 7 15 19 15 27 0 13 3 13
15 3 10 -9 15 -9 16 -1 1 6 3 16 4 21 1 6 3 14 4 20 2 20 46 50 73 50 21 0 32
7 40 25 6 13 15 22 20 19 14 -9 48 6 48 22 0 8 5 14 11 14 6 0 9 -6 6 -12 -3
-10 7 -12 39 -9 36 2 44 7 44 23 0 10 -4 16 -10 13 -6 -3 -7 1 -4 9 7 17 34
22 34 7 0 -5 13 -12 29 -16 17 -3 32 -14 34 -23 4 -15 5 -15 6 1 1 10 -10 22
-26 29 -26 10 -26 11 -8 17 11 3 22 15 23 26 5 24 22 37 40 30 7 -3 11 -1 8 4
-6 10 81 41 114 41 12 0 31 5 43 12 21 11 96 23 215 34 65 7 81 20 35 29 -16
4 -48 11 -73 17 -25 6 -135 13 -245 15 -110 2 -207 6 -215 10 -35 15 -72 11
-77 -8 -3 -10 -8 -19 -12 -19 -3 -1 -41 -3 -84 -6 -86 -7 -137 4 -77 16 l35 7
-42 2 c-33 1 -43 -3 -48 -18 -4 -13 -12 -18 -21 -14 -13 5 -15 23 -12 103 2
54 0 96 -4 93 -5 -2 -8 -34 -8 -71 0 -47 -5 -75 -18 -94 -28 -42 -71 -78 -95
-78 -12 0 -28 -9 -35 -20 -7 -11 -20 -20 -30 -20 -9 0 -41 -18 -70 -40 -38
-29 -62 -40 -87 -40 -35 0 -40 -7 -38 -57 1 -7 -3 -13 -8 -13 -4 0 -17 -10
-29 -22 -11 -12 -20 -16 -20 -10 0 7 -7 12 -15 12 -8 0 -15 -8 -15 -17 0 -15
2 -16 10 -3 7 12 10 8 10 -15 0 -53 -10 -73 -41 -79 -27 -5 -42 -26 -19 -26 6
0 10 5 10 10 0 6 8 10 18 10 21 -1 -54 -70 -76 -70 -11 0 -13 -9 -9 -37 6 -45
-15 -127 -50 -200 -14 -28 -23 -59 -19 -68 5 -13 1 -15 -17 -10 -20 6 -20 6
-5 -6 9 -8 18 -23 20 -34 2 -11 10 -19 16 -17 17 3 15 -18 -3 -24 -10 -4 -15
-20 -15 -46 0 -29 4 -39 13 -35 22 8 20 -153 -1 -169 -15 -11 -13 -19 20 -85
52 -108 64 -154 50 -191 -10 -27 -8 -34 20 -69 19 -23 29 -45 26 -57 -6 -22 8
-52 23 -52 13 0 40 -26 33 -33 -7 -7 18 -57 29 -57 5 0 7 -15 4 -33 -4 -26 -1
-36 14 -45 12 -8 19 -8 19 -2 0 5 -4 10 -10 10 -5 0 -10 15 -9 33 l1 32 10
-27 c5 -16 14 -28 20 -28 6 0 8 -7 5 -15 -4 -8 -1 -17 5 -21 7 -4 8 -3 4 4 -4
7 -2 12 3 12 6 0 11 -8 12 -17 2 -44 11 -69 31 -86 13 -11 21 -30 22 -50 1
-25 6 -33 22 -35 12 -2 30 -12 40 -23 20 -23 54 -25 54 -4 0 20 12 19 36 -3
10 -10 27 -21 37 -25 11 -4 17 -17 17 -36 0 -26 21 -61 37 -61 4 0 15 7 25 17
17 15 18 15 18 0 0 -10 4 -17 10 -17 5 0 13 -12 16 -27 4 -16 10 -33 15 -39 4
-5 5 -21 2 -34 -6 -22 -7 -23 -14 -4 -7 17 -8 16 -9 -6 -1 -23 -2 -23 -10 -5
-8 18 -9 17 -9 -7 -1 -19 4 -28 14 -28 21 0 19 -17 -2 -24 -10 -3 -5 -4 10 -2
23 3 27 1 20 -13 -13 -26 -9 -119 5 -133 11 -11 17 -9 32 10 21 25 37 27 77
10 15 -7 29 -12 30 -13 0 0 4 -17 8 -37 7 -35 5 -39 -20 -48 -26 -10 -27 -12
-11 -29 11 -13 14 -25 8 -40 l-8 -22 -18 20 c-19 21 -19 21 -48 -36 -25 -50
-27 -61 -17 -85 6 -15 17 -28 24 -28 7 0 15 -14 19 -32 7 -34 -4 -48 -37 -48
-10 0 -16 -3 -14 -7 3 -5 1 -17 -4 -28 -6 -17 -8 -17 -8 -2 -1 9 -6 17 -12 17
-5 0 -7 5 -4 10 4 6 -5 10 -20 10 -26 0 -26 -1 -23 -62 2 -44 7 -63 18 -66 13
-4 13 -3 2 11 -11 13 -10 16 5 20 17 4 17 5 1 6 -14 1 -18 10 -18 42 0 48 24
51 26 3 1 -16 4 -36 8 -44 3 -9 1 -24 -7 -33 -11 -15 -17 -16 -42 -7 -17 6
-40 23 -52 37 l-22 27 -11 -29 c-8 -22 -9 -40 -1 -64 12 -42 10 -46 -19 -31
-18 10 -25 8 -41 -9 -11 -12 -24 -21 -29 -21 -6 0 -10 -5 -10 -12 0 -6 -10
-22 -21 -34 -16 -17 -26 -21 -43 -14 -12 4 -42 9 -66 11 l-45 4 1 -35 c1 -19
5 -59 9 -88 8 -50 6 -55 -20 -79 l-27 -26 23 -18 c13 -10 28 -19 33 -19 4 0 6
-11 4 -25 -4 -18 2 -32 19 -49 24 -25 25 -66 2 -66 -6 0 -8 8 -5 18 4 12 -3
27 -18 41 -24 23 -25 23 -19 2 3 -11 12 -21 20 -21 15 0 10 -33 -9 -57 -10
-12 11 -43 28 -43 5 0 3 5 -4 12 -7 7 -12 19 -12 27 0 10 10 6 30 -14 16 -16
33 -25 37 -21 7 7 -8 20 -32 29 -5 3 -7 8 -2 12 4 5 13 3 19 -3 17 -17 28 -15
28 4 0 12 8 8 31 -14 19 -19 28 -35 24 -43 -5 -7 -4 -10 3 -5 11 6 42 -18 42
-34 0 -5 -12 -13 -27 -18 -16 -6 -22 -11 -15 -11 7 -1 22 4 33 10 15 7 24 7
34 -1 10 -8 14 -8 18 2 3 8 6 5 6 -6 1 -11 16 -32 34 -47 25 -22 28 -28 14
-29 -10 0 -29 12 -42 28 -13 15 -25 22 -25 16 0 -18 64 -77 74 -67 3 4 6 1 6
-5 0 -7 -6 -12 -14 -12 -21 0 -24 -20 -10 -65 10 -35 15 -40 39 -38 41 3 75
-14 75 -37 0 -12 5 -30 10 -40 6 -10 11 -38 12 -62 1 -34 10 -54 42 -95 22
-29 45 -53 51 -53 6 0 15 10 20 22 6 13 19 24 30 25 19 3 19 3 1 -5 -19 -8
-19 -9 0 -16 11 -4 20 -3 22 3 7 20 53 11 77 -15 14 -15 22 -30 19 -35 -3 -5
1 -9 9 -9 16 0 21 -47 6 -56 -5 -3 -9 -15 -9 -27 0 -12 -5 -29 -10 -37 -9 -13
-11 -13 -20 0 -5 8 -10 25 -10 37 0 12 -4 24 -9 27 -11 7 -2 -75 10 -89 18
-19 3 -82 -68 -288 -29 -85 -32 -167 -5 -167 10 0 46 30 81 66 l63 67 72 -5
c84 -6 105 -14 81 -32 -12 -9 -15 -25 -13 -71 l3 -60 43 -1 42 -1 -40 4 c-68
7 -47 26 23 21 34 -2 52 -3 39 -1 -12 3 -20 7 -18 11 2 4 -16 5 -40 3 l-44 -3
0 45 c0 36 4 47 19 52 37 12 73 -14 67 -50 -2 -11 -1 -15 1 -8 6 16 49 -3 57
-26 3 -9 9 -21 12 -28 3 -6 -1 -13 -8 -16 -7 -2 -5 -3 5 -1 17 2 57 -39 57
-59 0 -6 15 -27 33 -47 19 -19 44 -63 57 -97 23 -64 42 -89 58 -79 6 3 15 -1
22 -9 9 -11 16 -12 26 -4 7 6 32 13 56 15 86 10 99 12 112 23 8 7 25 9 39 6
21 -6 30 0 58 34 18 23 36 41 41 41 5 0 28 -19 52 -42 68 -68 125 -118 134
-118 5 0 14 -11 20 -25 12 -26 19 -30 112 -61 62 -20 85 -42 100 -96 16 -55
40 -79 87 -85 47 -6 76 -29 54 -43 -9 -5 -10 -10 -2 -14 6 -4 11 -3 11 3 0 9
98 27 130 23 10 -1 11 1 3 4 -23 10 -14 25 11 18 16 -4 34 0 48 10 12 9 37 16
55 16 26 0 36 -6 48 -30 17 -33 45 -39 65 -15 7 9 19 14 25 11 16 -6 25 2 59
47 15 21 49 61 75 88 44 49 48 50 107 53 64 3 84 10 84 28 0 16 38 60 65 74
14 7 66 14 123 15 93 2 97 1 100 -20 2 -12 14 -26 27 -31 12 -5 25 -15 27 -22
7 -19 158 -29 179 -11 8 7 27 13 42 13 14 0 32 8 39 18 7 10 21 21 30 25 10 3
34 29 54 57 36 50 53 66 35 31 -6 -10 -7 -21 -4 -25 4 -3 -4 -16 -16 -27 -27
-25 -22 -36 8 -17 12 7 21 21 21 30 0 12 8 18 23 19 21 1 21 1 -3 9 -19 6 -11
8 33 9 31 1 57 5 57 11 0 5 -21 7 -50 3 -61 -7 -71 16 -14 33 27 9 34 9 31 0
-9 -22 58 -18 83 4 15 13 32 19 45 16 11 -3 23 -6 27 -6 4 0 9 -71 11 -157 l3
-158 -1 163 c0 89 2 163 5 165 16 7 70 84 70 99 0 10 16 34 36 54 28 28 39 33
45 22 8 -12 13 -4 10 14 0 5 8 8 20 8 11 0 17 -4 14 -10 -4 -7 44 -9 137 -8
l143 2 -133 3 c-116 3 -132 6 -122 18 10 12 36 14 129 11 64 -2 81 -1 39 1
-43 2 -78 8 -78 13 0 5 -7 7 -15 4 -13 -5 -13 -3 -2 17 17 34 67 82 100 96 15
7 27 19 27 28 0 15 57 51 74 47 5 -2 6 4 3 13 -4 8 -3 15 1 16 4 0 30 2 57 3
80 5 134 17 147 34 10 12 11 16 0 19 -31 11 4 21 63 17 69 -3 84 8 45 36 -11
8 -20 20 -20 27 0 7 -5 13 -11 13 -6 0 -9 6 -6 14 3 8 0 22 -7 32 -7 9 -11 26
-8 36 3 11 -2 20 -14 24 -54 17 -114 49 -114 61 0 7 -7 13 -15 13 -8 0 -15 4
-15 9 0 5 -8 11 -17 13 -15 4 -11 11 21 42 21 20 45 35 52 32 8 -3 24 -1 36 4
18 7 19 9 6 9 -10 1 -18 7 -18 15 0 20 17 29 24 14 3 -7 2 0 -1 16 -5 22 -3
27 7 21 10 -6 12 -4 7 7 -3 10 5 26 23 42 16 14 27 31 25 38 -6 15 82 104 92
94 4 -4 1 -11 -7 -16 -9 -6 -10 -10 -3 -10 6 0 14 -8 16 -18 4 -15 5 -15 6 0
0 9 7 18 14 21 6 2 4 3 -6 1 -9 -1 -15 2 -11 7 7 12 41 12 48 0 3 -5 17 -8 32
-8 15 0 21 3 14 7 -8 5 -1 17 20 39 17 17 36 29 41 25 5 -3 9 4 9 15 0 12 4
21 8 21 5 0 17 16 28 36 l19 36 -22 18 c-24 19 -30 40 -13 40 6 0 10 -7 10
-16 0 -8 4 -13 9 -10 11 7 -9 66 -22 66 -5 0 -6 -7 -3 -15 3 -9 -1 -18 -10
-22 -8 -3 -13 -12 -9 -20 4 -12 0 -14 -17 -9 -13 3 -26 6 -30 6 -8 0 -28 57
-28 81 0 11 5 19 11 19 6 0 17 7 25 15 9 8 25 15 36 15 17 0 19 -4 13 -22 -4
-13 -9 -36 -11 -53 -4 -29 -4 -29 9 4 9 24 16 31 21 22 5 -7 17 -11 27 -8 22
6 25 -3 7 -21 -8 -8 -8 -12 -1 -12 14 0 24 26 17 44 -3 7 2 16 10 19 9 4 16
13 16 21 0 8 14 20 30 28 17 7 30 16 30 20 0 19 2 24 17 41 9 9 28 17 43 17
15 0 34 7 41 16 11 14 9 20 -20 44 -20 16 -31 32 -27 38 5 8 0 12 -13 12 -10
0 -31 14 -45 31 -26 31 -27 57 -4 103 7 13 6 21 -2 26 -8 5 -10 28 -7 74 5 71
-3 88 -33 61 -17 -16 -110 -55 -130 -55 -6 0 -10 21 -10 46 0 38 -3 45 -17 42
-12 -2 -19 -14 -21 -38 -5 -56 -9 -62 -32 -50 -32 17 -34 36 -10 70 14 20 30
30 47 30 13 0 37 9 51 20 14 12 35 20 47 18 11 -1 34 7 50 19 17 11 39 22 50
24 12 3 21 14 23 29 5 29 29 49 60 50 13 0 22 6 22 15 0 8 7 15 16 15 8 0 12
5 9 10 -3 6 -1 10 5 10 6 0 8 5 5 10 -3 6 -1 10 5 10 6 0 15 11 21 24 12 26
61 40 79 22 5 -5 13 -6 17 -1 5 4 2 10 -5 12 -6 3 -9 9 -6 15 4 6 1 14 -7 18
-11 7 -11 13 1 34 7 14 19 26 27 26 7 0 13 11 13 24 0 14 5 28 10 31 6 3 10
14 10 23 0 9 12 28 25 41 19 17 24 29 19 45 -12 38 -5 83 17 108 19 21 22 35
20 87 -1 33 -6 75 -11 91 -7 23 -5 30 6 30 8 0 14 4 14 9 0 10 -30 25 -45 23
-6 -1 -18 13 -28 31 -10 18 -31 46 -47 64 -16 17 -26 34 -22 38 4 5 1 5 -6 1
-7 -4 -28 5 -50 22 -20 16 -47 34 -59 41 -13 7 -20 17 -17 26 3 8 -4 28 -16
45 -21 29 -21 30 -1 30 11 0 22 9 26 20 8 25 30 25 100 -1 65 -24 115 -63 115
-90 0 -10 5 -19 10 -19 6 0 10 -9 10 -20 0 -11 5 -20 10 -20 6 0 10 9 10 20 0
11 -4 20 -10 20 -5 0 -10 9 -10 20 0 11 -4 20 -10 20 -5 0 -10 5 -10 12 0 16
-51 68 -67 68 -7 0 -13 4 -13 9 0 12 -56 31 -90 31 -26 0 -28 3 -32 46 l-3 46
42 -5 c24 -2 43 -1 43 2 0 16 -26 31 -55 31 -36 1 -63 19 -68 46 -1 10 -6 24
-10 31 -4 6 -1 13 5 16 30 11 -5 19 -42 9 -48 -12 -44 2 5 18 30 10 35 16 33
41 -1 16 -6 29 -10 29 -4 0 -8 8 -8 18 0 25 -14 42 -38 47 -15 2 -19 0 -15
-11 3 -8 9 -14 13 -14 9 0 35 -69 28 -74 -1 -2 -15 -6 -29 -9 -23 -6 -27 -3
-31 18 -3 13 0 29 5 34 8 8 6 11 -6 11 -9 0 -17 -7 -17 -15 0 -8 -6 -12 -14
-9 -7 3 -13 13 -12 22 0 9 -5 16 -12 14 -10 -2 -11 7 -6 33 4 24 3 35 -6 35
-7 0 -9 8 -4 22 6 20 5 21 -10 9 -20 -17 -21 -7 0 24 9 14 23 25 30 25 8 0 14
7 14 15 0 27 -42 16 -72 -17 l-29 -33 16 34 c19 38 7 64 -18 42 -12 -9 -16 -8
-21 4 -3 8 -3 22 0 30 7 18 -17 20 -33 4 -17 -17 -72 36 -66 62 6 21 51 49 78
49 8 0 15 7 15 15 0 23 -39 18 -89 -10 -49 -29 -57 -30 -94 -12 -19 8 -26 18
-23 30 2 9 -1 17 -7 17 -6 0 9 15 34 32 24 18 46 36 47 40 2 5 11 8 20 8 14 0
14 2 3 9 -10 6 -34 -2 -77 -25 -52 -28 -61 -30 -57 -15 5 19 -19 31 -64 31
-26 0 -93 78 -93 109 0 11 -4 21 -10 21 -5 0 -10 7 -10 15 0 20 -10 19 -26 -2
-13 -16 -15 -16 -24 -2 -5 8 -26 21 -48 28 -22 7 -46 25 -58 42 -10 16 -22 29
-26 29 -5 0 -8 15 -8 34 0 38 -42 131 -54 119 -13 -13 -37 -12 -43 3 -3 7 -20
30 -38 49 -27 30 -34 33 -39 19 -5 -14 -9 -14 -22 -3 -10 8 -12 15 -5 17 6 2
11 14 11 27 0 25 -45 62 -55 45 -3 -6 -17 -10 -30 -10 -13 0 -27 -5 -30 -10
-7 -12 -37 2 -66 31 -10 10 -26 19 -34 19 -9 0 -15 9 -15 25 0 27 -31 48 -38
27 -2 -7 -16 -11 -30 -11 -17 1 -21 3 -9 6 9 2 17 8 17 13 0 5 -7 7 -14 4 -17
-7 -65 25 -66 44 0 7 -14 12 -36 12 -24 0 -33 4 -28 12 5 8 2 9 -10 5 -13 -5
-24 1 -38 18 -11 14 -24 25 -29 25 -18 0 -86 86 -81 103 1 4 -6 7 -15 7 -33 1
-69 115 -57 177 l6 30 224 2 c151 2 224 -1 224 -8 0 -7 -70 -12 -202 -14
l-203 -2 202 -3 203 -2 3 -207 2 -208 3 228 2 227 -243 0 -243 0 -26 -77 c-36
-107 -40 -139 -28 -224 11 -73 52 -179 70 -179 6 0 10 -10 10 -23 0 -15 9 -29
24 -37 24 -12 36 -37 36 -72 0 -22 -48 -25 -56 -4 -6 17 -41 26 -99 27 -52 1
-77 8 -70 20 10 15 -15 10 -32 -6 -18 -19 -39 -14 -35 7 1 9 -4 21 -13 28 -12
10 -18 9 -30 -4 -19 -19 -81 -21 -122 -4 -15 6 -32 10 -36 9 -5 -1 -6 3 -2 9
4 6 -10 11 -37 12 l-43 1 45 8 c44 7 44 7 -12 5 -43 -2 -58 1 -58 11 0 9 -11
12 -32 11 -23 -2 -32 1 -30 10 2 10 -7 11 -32 7 -20 -4 -36 -2 -40 4 -4 5 -34
22 -66 37 -33 15 -60 31 -60 35 0 5 -5 9 -10 9 -6 0 -26 18 -46 40 -41 45 -54
50 -54 19 0 -57 82 -156 189 -229 27 -19 54 -45 60 -57 8 -16 19 -23 40 -23
21 0 32 -6 36 -21 4 -11 17 -24 30 -29 13 -5 25 -19 27 -32 2 -13 9 -22 17
-20 7 2 22 -5 32 -14 12 -11 19 -13 19 -5 0 6 -7 14 -15 17 -15 6 -21 24 -7
24 4 0 22 -13 41 -29 30 -25 32 -30 21 -50 -8 -15 -8 -21 -1 -17 15 10 14 -7
-1 -24 -7 -8 4 -1 25 14 33 24 42 27 63 17 14 -6 24 -19 24 -31 0 -12 -4 -18
-10 -15 -5 3 -10 12 -10 20 0 7 -7 16 -16 19 -14 5 -15 4 -4 -9 7 -8 10 -21 7
-29 -4 -10 6 -17 34 -24 35 -9 39 -8 39 9 0 10 5 19 11 19 7 0 10 -18 7 -50
-1 -28 0 -50 5 -50 4 0 7 18 7 40 0 55 17 50 22 -6 l3 -46 -44 6 c-24 3 -91 6
-148 6 l-105 0 4 94 c1 52 0 92 -4 89 -14 -8 -9 -213 5 -218 22 -8 276 -10
264 -3 -7 4 -69 8 -139 8 -79 0 -128 4 -128 10 0 23 251 10 315 -16 18 -7 18
-6 7 9 -12 14 -11 17 11 22 32 9 65 -9 78 -42 7 -18 15 -24 29 -20 12 3 29 -4
45 -19 14 -13 31 -24 36 -24 6 0 9 -12 7 -27 -3 -26 -1 -28 38 -29 22 -1 54
-9 70 -20 16 -10 30 -19 32 -20 2 -1 5 -13 8 -28 5 -27 -4 -34 -22 -16 -7 7
-9 1 -6 -20 4 -30 22 -43 22 -15 0 8 6 14 13 13 6 -2 11 3 9 10 -3 16 18 15
42 -3 15 -11 17 -17 7 -29 -10 -11 -9 -17 4 -28 43 -36 62 -62 58 -78 -3 -10
2 -29 11 -43 15 -22 15 -26 1 -37 -8 -7 -15 -19 -15 -27 0 -8 -18 -31 -40 -50
-24 -22 -40 -45 -40 -59 0 -20 -4 -22 -34 -17 -28 4 -36 1 -46 -17 -7 -12 -13
-34 -15 -48 -3 -26 -31 -55 -49 -49 -5 2 -17 30 -25 63 -13 47 -20 59 -36 59
-12 0 -21 -8 -23 -20 -3 -11 -10 -24 -18 -28 -8 -4 -14 -18 -14 -31 0 -27 -25
-64 -37 -53 -4 5 1 15 11 23 11 7 16 17 12 21 -4 4 -11 1 -16 -7 -6 -8 -10
-10 -11 -5 0 6 -4 0 -7 -12 l-7 -23 -33 26 -33 26 6 130 c5 116 4 128 -10 115
-8 -9 -15 -19 -15 -24 0 -15 -25 -63 -32 -63 -10 0 -48 -75 -48 -95 0 -21 -40
-65 -40 -44 -1 10 -5 9 -15 -5 -10 -13 -11 -23 -5 -31 15 -18 -40 -62 -88 -70
-40 -6 -84 -42 -88 -70 -1 -8 -9 -22 -18 -30 -14 -15 -12 -45 3 -45 4 0 8 -14
9 -31 1 -18 7 -39 12 -48 8 -13 10 -12 10 9 1 22 2 23 11 7 6 -10 8 -21 5 -24
-3 -4 0 -13 7 -21 9 -13 9 -14 0 -8 -7 4 -13 2 -13 -3 0 -6 7 -11 15 -11 8 0
23 -9 33 -21 9 -11 27 -25 40 -30 12 -5 22 -15 22 -22 0 -8 12 -20 26 -27 22
-12 29 -12 52 1 23 12 28 25 38 89 6 41 10 87 7 101 -3 16 1 32 12 43 11 11
15 25 11 41 -5 18 -2 25 8 25 8 0 16 6 19 13 6 17 30 -6 34 -35 2 -12 9 -26
16 -31 8 -6 7 -7 -4 -4 -12 4 -16 -3 -17 -35 -1 -23 3 -47 8 -53 8 -9 6 -14
-4 -18 -33 -13 -51 -78 -50 -179 0 -88 -2 -98 -18 -98 -10 0 -18 4 -18 9 0 19
-89 61 -130 61 -38 0 -41 2 -34 23 4 12 12 26 18 30 6 4 -10 5 -35 1 -38 -5
-47 -3 -53 12 -4 10 -1 21 6 25 9 6 6 14 -12 30 l-25 21 25 -7 c23 -7 24 -6 9
9 -9 9 -33 18 -55 19 l-39 3 0 95 c0 83 3 98 23 123 25 33 23 41 -7 31 -12 -3
-30 -25 -42 -48 -11 -23 -26 -53 -34 -66 -15 -26 -65 -62 -76 -55 -5 2 -29 -1
-54 -7 -41 -10 -51 -9 -83 8 -45 25 -112 48 -130 44 -7 -1 -29 7 -48 18 -21
13 -53 21 -80 21 -24 0 -44 2 -44 5 0 14 44 64 52 59 5 -3 12 3 15 15 l5 21
25 -20 c14 -11 31 -20 37 -20 17 0 186 -87 189 -97 3 -11 41 -5 45 7 2 6 11
10 20 10 15 0 15 -2 2 -10 -13 -8 -12 -10 3 -10 9 0 18 5 18 10 1 6 2 13 3 18
1 4 16 21 34 39 17 17 32 41 32 53 0 11 6 20 13 19 27 -3 37 2 37 19 0 10 7
27 15 38 23 30 18 76 -10 103 l-25 23 0 -40 c0 -22 5 -42 11 -44 7 -2 5 -16
-7 -40 -15 -33 -21 -37 -63 -40 -74 -6 -100 2 -141 43 -30 30 -40 50 -46 87
-3 26 -11 55 -16 65 -5 10 -10 28 -12 40 -1 12 -6 31 -11 42 -4 11 -14 35 -21
53 -13 32 -19 34 -104 34 -3 0 -26 -3 -52 -6 -39 -6 -48 -4 -48 8 0 9 -8 14
-20 13 -11 -1 -20 -7 -20 -14 0 -7 3 -12 8 -12 20 3 32 -2 32 -15 0 -8 7 -16
16 -18 14 -3 13 -6 -4 -25 -11 -13 -24 -23 -31 -23 -15 0 -14 -30 4 -63 16
-31 15 -109 -2 -114 -21 -7 -51 153 -63 337 -4 63 -8 116 -9 118 -5 11 -20 -4
-31 -33 -14 -37 -25 -44 -33 -22 -3 6 -3 -5 0 -27 5 -33 4 -38 -13 -34 -12 2
-19 12 -20 28 -2 52 -54 138 -54 91 0 -25 -23 -27 -60 -6 -20 11 -21 14 -7 15
10 0 15 5 12 11 -4 6 -12 8 -19 6 -23 -9 -52 12 -71 52 -16 33 -28 43 -58 52
-44 12 -67 0 -67 -34 0 -11 -7 -28 -16 -38 -11 -12 -17 -44 -20 -100 -5 -92
-20 -136 -22 -68 -2 53 -14 66 -44 51 -65 -31 -100 -26 -118 19 -8 18 -18 28
-26 25 -20 -8 -17 14 3 29 14 11 15 17 5 39 -12 26 -7 56 9 56 12 0 11 -17 -1
-23 -6 -3 -5 -4 2 -3 7 2 12 12 11 22 -2 10 -4 41 -6 67 -2 27 -9 52 -16 56
-8 5 -10 18 -5 35 4 16 1 37 -6 51 -10 19 -10 27 4 46 9 13 16 38 16 56 0 17
6 36 13 40 22 14 47 61 47 88 0 15 12 37 27 53 16 15 29 38 30 51 1 13 8 31
15 40 25 30 48 79 48 100 0 12 5 21 10 21 6 0 10 6 10 13 0 36 22 85 40 90 23
6 27 27 5 27 -8 0 -15 5 -15 10 0 6 7 10 15 10 21 0 19 7 -10 38 -26 28 -33
74 -26 180 1 25 -2 42 -9 42 -6 0 -8 -4 -5 -10z m-991 -245 c-7 -16 -24 -21
-24 -6 0 8 7 13 27 20 1 1 0 -6 -3 -14z m-209 -147 c4 -3 2 -9 -3 -12 -5 -3
-15 1 -21 8 -10 11 -9 14 3 12 9 -1 18 -5 21 -8z m-109 -43 c-1 -22 -3 -23
-16 -9 -13 13 -13 16 0 24 8 5 16 10 16 10 1 0 1 -11 0 -25z m381 -1 c-3 -3
-12 -4 -19 -1 -8 3 -5 6 6 6 11 1 17 -2 13 -5z m-469 -95 c12 -19 11 -19 -7
-10 -26 14 -36 31 -19 31 7 0 19 -9 26 -21z m-78 -133 c0 -53 -22 -71 -45 -39
-11 15 -10 21 8 39 29 29 37 29 37 0z m3759 -89 c0 -21 -1 -21 -9 -2 -12 28
-12 37 0 30 6 -3 10 -16 9 -28z m-3773 -12 c18 -14 18 -14 -7 -15 -15 0 -29 7
-33 15 -7 19 14 19 40 0z m6 -55 c5 -36 -2 -43 -35 -35 -19 5 -23 11 -19 36 3
22 9 29 27 29 18 0 24 -7 27 -30z m4018 0 c0 -11 -2 -20 -4 -20 -2 0 -6 9 -9
20 -3 11 -1 20 4 20 5 0 9 -9 9 -20z m-4020 -126 c0 -2 -9 0 -20 6 -11 6 -20
13 -20 16 0 2 9 0 20 -6 11 -6 20 -13 20 -16z m-62 -46 c7 -7 12 -8 12 -3 0 4
9 0 20 -10 24 -21 26 -45 5 -45 -19 0 -55 31 -55 46 0 7 -6 15 -12 17 -9 4 -8
6 3 6 8 1 20 -4 27 -11z m4792 -533 c0 -12 -29 -3 -34 10 -4 13 -2 14 14 5 11
-6 20 -13 20 -15z m-2694 -172 c15 -21 18 -33 6 -33 -5 0 -14 11 -20 25 -13
29 -5 33 14 8z m1064 -166 c0 -11 -17 7 -58 63 l-33 45 45 -50 c25 -27 46 -53
46 -58z m-810 27 c0 -6 -54 17 -67 28 -7 6 -13 17 -13 25 0 9 14 3 40 -18 22
-18 40 -34 40 -35z m210 27 c0 -9 -53 -31 -74 -31 -15 0 45 38 62 39 6 1 12
-3 12 -8z m-160 -41 c8 -5 11 -10 5 -10 -5 0 -17 5 -25 10 -8 5 -10 10 -5 10
6 0 17 -5 25 -10z m-324 -39 c23 -12 50 -17 67 -14 19 4 33 0 45 -14 9 -10 30
-29 46 -41 16 -12 25 -22 20 -23 -24 -1 158 -51 205 -56 52 -5 53 -6 30 -19
-23 -13 -47 -13 -134 2 -23 4 -26 3 -15 -5 9 -7 10 -11 3 -11 -7 0 -27 15 -45
34 -42 42 -63 53 -130 67 -70 14 -158 50 -158 64 0 8 19 35 25 35 1 0 19 -9
41 -19z m519 -111 c-4 -13 -12 -19 -21 -16 -8 3 -14 1 -14 -4 0 -6 -7 -10 -17
-10 -14 0 -14 2 2 20 10 11 24 20 32 20 7 0 13 5 13 12 0 6 3 9 6 5 3 -3 3
-15 -1 -27z m668 -22 c-14 -28 -18 -30 -21 -14 -2 11 4 25 14 33 26 19 26 17
7 -19z m-126 -40 c4 -7 9 -33 10 -57 2 -25 11 -54 21 -64 16 -19 16 -20 0 -14
-13 4 -18 1 -19 -11 0 -9 -3 -28 -5 -42 -3 -14 -5 -45 -6 -70 -1 -45 -1 -46
-34 -42 -26 3 -33 0 -39 -17 -3 -12 -15 -21 -25 -21 -10 0 -20 -4 -22 -9 -4
-13 -98 -24 -98 -12 0 5 5 22 10 37 14 37 -10 65 -39 47 -29 -18 -61 -5 -61
24 0 25 29 83 41 83 16 0 39 -13 39 -22 0 -6 14 -23 31 -39 26 -24 40 -29 81
-29 l51 0 -8 38 c-20 107 -21 132 -6 165 30 61 60 83 78 55z m-540 -12 c-2 -6
-9 -12 -15 -12 -23 -3 -24 -4 -11 -21 11 -13 11 -15 1 -9 -7 4 -41 3 -75 -3
-34 -5 -87 -12 -117 -15 l-55 -5 45 13 c25 7 63 18 85 24 22 5 57 17 78 24 45
17 69 19 64 4z m-362 -14 c-3 -3 -11 0 -18 7 -9 10 -8 11 6 5 10 -3 15 -9 12
-12z m1646 -74 c20 -4 25 -1 23 11 -3 9 0 22 5 29 11 18 50 -2 108 -55 61 -56
74 -66 80 -59 5 5 43 -66 43 -80 0 -2 -8 0 -17 3 -13 5 -12 1 5 -17 22 -24 32
-54 11 -33 -15 15 -35 -4 -45 -41 -9 -39 -35 -29 -48 19 -11 39 -13 40 -59 41
-26 1 -47 -2 -47 -6 0 -4 9 -35 21 -69 11 -35 19 -75 17 -90 -3 -20 -8 -10
-26 44 -22 68 -51 135 -63 145 -10 9 -38 65 -64 130 -41 101 -41 110 -3 69 18
-20 45 -39 59 -41z m256 44 c10 -11 38 -30 62 -43 24 -13 65 -45 90 -70 88
-87 89 -91 96 -181 3 -46 2 -89 -3 -97 -12 -16 -55 -23 -99 -16 -29 5 -33 10
-34 38 0 27 -2 29 -9 12 -10 -25 -14 -15 -30 70 -7 33 -20 79 -31 103 -10 23
-16 50 -13 60 4 12 3 13 -3 4 -7 -9 -14 -2 -26 23 -18 39 -22 59 -9 51 5 -3 9
1 9 8 0 9 -7 12 -15 8 -11 -4 -14 -1 -10 10 4 9 1 21 -5 27 -8 8 -8 11 1 11 6
0 19 -8 29 -18z m-1832 -10 c-3 -3 -11 0 -18 7 -9 10 -8 11 6 5 10 -3 15 -9
12 -12z m2702 -4 c61 -35 106 -77 100 -93 -4 -9 -1 -12 8 -9 14 6 73 -71 62
-82 -3 -3 -13 8 -23 25 l-17 29 -26 -32 c-26 -32 -57 -37 -63 -11 -6 27 -26 0
-21 -27 3 -15 9 -25 14 -22 5 3 9 1 9 -5 0 -26 -23 -15 -93 46 -42 37 -75 69
-73 71 3 2 25 -5 50 -17 25 -11 46 -16 46 -11 0 15 -33 42 -70 58 l-35 14 23
15 c27 19 29 37 2 30 -11 -3 -18 -1 -15 3 3 5 19 11 35 15 17 4 28 11 24 16
-10 16 23 9 63 -13z m-972 -27 c-6 -5 -25 10 -25 20 0 5 6 4 14 -3 8 -7 12
-15 11 -17z m-1435 -16 c7 -8 11 -15 9 -16 -34 -5 -91 -4 -95 2 -4 7 39 27 62
28 6 1 17 -6 24 -14z m155 -17 c14 -6 25 -15 25 -20 0 -11 -34 -10 -46 2 -6 6
-25 4 -54 -5 -25 -7 -40 -14 -35 -14 10 -1 -42 -31 -53 -31 -3 0 7 13 22 29
18 19 34 27 47 24 11 -3 19 -2 18 3 -1 5 -1 12 0 17 2 11 47 8 76 -5z m-500
-26 c-3 -3 -11 0 -18 7 -9 10 -8 11 6 5 10 -3 15 -9 12 -12z m961 -42 c0 -33
-4 -60 -8 -60 -5 0 -8 -13 -8 -29 0 -29 -15 -49 -27 -37 -3 3 1 31 10 63 15
52 24 93 26 116 1 4 3 7 5 7 2 0 3 -27 2 -60z m594 45 c0 -8 -4 -15 -10 -15
-5 0 -10 7 -10 15 0 8 5 15 10 15 6 0 10 -7 10 -15z m679 -62 c85 -73 120
-114 131 -155 6 -20 15 -40 21 -43 6 -5 6 -12 -3 -22 -7 -8 -20 -32 -30 -52
-10 -20 -16 -28 -13 -18 3 10 -2 20 -10 23 -8 4 -20 25 -27 47 -7 23 -21 57
-30 77 -23 45 -24 16 -2 -70 8 -34 13 -64 10 -68 -3 -3 -6 2 -6 11 0 9 -4 19
-10 22 -6 4 -9 -4 -7 -17 1 -14 -3 -22 -10 -21 -7 2 -13 -2 -13 -7 0 -16 -47
-11 -54 6 -3 9 -6 33 -6 55 0 53 -17 121 -51 202 -15 37 -26 67 -23 67 3 0 15
-9 27 -21 28 -26 77 -52 85 -45 3 3 -5 17 -18 31 -13 14 -19 25 -14 25 5 0 2
5 -6 10 -8 5 -11 10 -6 10 5 0 34 -21 65 -47z m-655 5 c11 -18 27 -41 37 -51
10 -9 23 -36 29 -60 5 -23 14 -55 19 -72 5 -16 11 -48 14 -70 3 -22 3 -32 1
-22 -7 21 -11 21 -48 2 -20 -11 -32 -12 -36 -5 -9 14 -30 -34 -30 -69 0 -15
-5 -42 -11 -59 -8 -24 -7 -37 5 -61 24 -46 19 -50 -17 -10 -34 39 -53 65 -64
89 -4 8 -11 18 -16 21 -5 4 -11 26 -12 50 -2 35 3 50 27 80 16 19 31 53 34 75
4 21 12 58 20 80 7 23 10 51 7 62 -6 24 2 52 15 52 4 0 16 -15 26 -32z m-334
12 c0 -12 -33 -30 -55 -30 -14 0 -14 2 -3 13 23 23 58 33 58 17z m-923 -6 c-3
-3 -12 -4 -19 -1 -8 3 -5 6 6 6 11 1 17 -2 13 -5z m-109 -11 c-10 -2 -28 -2
-40 0 -13 2 -5 4 17 4 22 1 32 -1 23 -4z m2447 -34 c58 -35 78 -64 71 -104 -6
-29 -14 -38 -46 -53 -22 -9 -40 -20 -40 -24 0 -5 -5 -8 -11 -8 -6 0 -9 6 -6
14 3 8 3 16 -1 18 -10 4 -47 59 -55 81 -3 9 -11 17 -17 17 -13 0 -4 34 18 68
16 25 35 23 87 -9z m-2186 5 c2 -2 1 -10 -3 -19 -4 -12 -14 -14 -40 -9 -28 5
-37 2 -48 -15 -13 -22 -38 -29 -38 -10 0 6 14 24 30 41 26 25 35 29 63 23 17
-4 34 -9 36 -11z m1901 -44 c36 -35 65 -40 57 -10 -4 16 0 20 19 20 13 0 24
-4 24 -10 0 -5 7 -10 15 -10 8 0 20 -10 26 -22 7 -13 23 -34 36 -47 31 -32 25
-45 -20 -46 -20 -1 -43 -8 -52 -15 -10 -8 -15 -9 -15 -1 0 6 -5 11 -10 11 -7
0 -7 -6 0 -19 12 -24 13 -31 1 -31 -10 0 -71 119 -71 137 0 5 -11 20 -25 33
-23 21 -32 40 -20 40 2 0 18 -13 35 -30z m-2404 -48 c-4 -3 -14 2 -24 12 -16
18 -16 18 6 6 13 -6 21 -14 18 -18z m241 22 c-3 -3 -12 -4 -19 -1 -8 3 -5 6 6
6 11 1 17 -2 13 -5z m273 -14 c0 -5 -8 -10 -17 -10 -15 0 -16 2 -3 10 19 12
20 12 20 0z m-534 -85 c10 -8 15 -14 9 -14 -5 0 -19 6 -29 14 -11 8 -15 15
-10 15 6 0 19 -7 30 -15z m142 -25 c4 -25 -12 -20 -28 10 -8 15 -6 18 8 16 9
-2 19 -13 20 -26z m1035 -20 c-29 -28 -61 -50 -73 -50 -12 0 -18 5 -15 10 3 6
16 10 28 10 12 0 37 17 58 40 21 22 41 40 46 40 4 0 -15 -23 -44 -50z m-1128
10 c3 -6 -1 -7 -9 -4 -18 7 -21 14 -7 14 6 0 13 -4 16 -10z m-114 -47 c13 -16
12 -17 -3 -4 -17 13 -22 21 -14 21 2 0 10 -8 17 -17z m2096 -15 c-3 -8 -6 -5
-6 6 -1 11 2 17 5 13 3 -3 4 -12 1 -19z m-807 -81 c0 -2 -16 -18 -35 -37 -40
-39 -48 -29 -10 13 22 23 45 35 45 24z m-1528 -43 c22 -48 -23 -74 -64 -37
-22 20 -23 37 -3 56 19 20 54 10 67 -19z m964 -19 c33 -9 37 -50 7 -64 -33
-15 -53 -14 -75 6 -22 20 -23 28 0 52 17 19 24 19 68 6z m-401 -65 c7 -12 -12
-12 -40 0 -18 8 -17 9 7 9 15 1 30 -3 33 -9z m28 -136 c3 -4 2 -15 -3 -25 -7
-11 -7 -20 0 -24 5 -3 7 -19 3 -35 -4 -23 -2 -30 11 -30 19 0 19 2 1 -50 -8
-23 -15 -56 -15 -72 0 -41 -19 -25 -26 23 -4 21 -15 49 -26 61 -11 13 -15 24
-9 26 6 2 11 20 11 41 0 20 7 46 15 57 8 12 11 24 8 28 -3 3 0 6 9 6 8 0 18
-3 21 -6z m647 -39 c0 -14 -7 -21 -21 -22 -16 -2 -19 2 -14 15 4 9 10 25 13
35 4 15 7 16 13 5 5 -7 9 -22 9 -33z m-720 5 c0 -5 -4 -10 -10 -10 -5 0 -10 5
-10 10 0 6 5 10 10 10 6 0 10 -4 10 -10z m810 -25 c0 -9 -6 -12 -15 -9 -8 4
-15 10 -15 15 0 5 7 9 15 9 8 0 15 -7 15 -15z m545 -117 c-1 -13 -7 -39 -14
-59 -6 -20 -11 -50 -9 -66 1 -17 -6 -42 -15 -56 -9 -15 -17 -33 -17 -41 0 -24
-20 -30 -38 -12 -15 15 -15 19 -2 29 12 9 14 27 10 79 -5 60 -3 65 12 57 30
-16 40 -11 26 14 -7 12 -11 29 -9 37 8 42 57 57 56 18z m-1185 -89 c0 -6 -4
-7 -10 -4 -5 3 -10 1 -10 -6 0 -7 -3 -10 -6 -6 -10 10 5 39 16 32 5 -3 10 -11
10 -16z m2100 -59 c0 -22 -4 -40 -10 -40 -5 0 -10 18 -10 40 0 22 5 40 10 40
6 0 10 -18 10 -40z m-1000 -125 c0 -18 -5 -25 -19 -25 -21 0 -35 36 -17 44 25
10 36 5 36 -19z m-1080 -87 c0 -6 -7 -7 -16 -4 -9 3 -18 6 -20 6 -3 0 -3 4 1
10 7 11 35 2 35 -12z m1030 -99 c0 -27 -4 -49 -9 -49 -5 0 -13 -9 -16 -21 -7
-20 -8 -19 -27 11 -19 32 -19 33 0 54 11 11 23 31 27 44 11 36 25 15 25 -39z
m-950 -19 c0 -5 -4 -10 -10 -10 -5 0 -10 5 -10 10 0 6 5 10 10 10 6 0 10 -4
10 -10z m845 -122 c36 -16 34 -58 -3 -79 -27 -15 -30 -15 -50 6 -22 22 -22 23
-2 28 14 3 20 14 20 31 0 30 0 30 35 14z m-57 -100 c17 -17 15 -48 -2 -48 -8
0 -22 7 -31 16 -12 12 -13 19 -4 30 14 17 21 18 37 2z m-829 -123 c0 -5 -4 -3
-9 5 -5 8 -9 22 -9 30 0 16 17 -16 18 -35z m1786 -655 c-3 -5 -14 -10 -23 -10
-15 0 -15 2 -2 10 20 13 33 13 25 0z m-138 -46 c-16 -8 -34 -13 -40 -11 -7 3
-1 9 13 15 38 16 59 13 27 -4z"/>
<path d="M4652 3781 c2 -7 7 -12 11 -12 12 1 9 15 -3 20 -7 2 -11 -2 -8 -8z"/>
<path d="M4950 3821 c0 -5 7 -11 15 -15 8 -3 15 -1 15 3 0 5 -7 11 -15 15 -8
3 -15 1 -15 -3z"/>
<path d="M5025 3773 c22 -17 42 -29 44 -27 7 6 -35 42 -59 49 -19 6 -16 1 15
-22z"/>
<path d="M5860 3769 c0 -5 5 -7 10 -4 6 3 10 8 10 11 0 2 -4 4 -10 4 -5 0 -10
-5 -10 -11z"/>
<path d="M5595 3530 c3 -5 8 -10 11 -10 2 0 4 5 4 10 0 6 -5 10 -11 10 -5 0
-7 -4 -4 -10z"/>
<path d="M3978 5983 c7 -3 16 -2 19 1 4 3 -2 6 -13 5 -11 0 -14 -3 -6 -6z"/>
<path d="M237 5953 c323 -4 323 -22 1 -26 l-243 -2 242 -3 243 -2 3 -207 2
-208 3 228 2 227 -247 -2 -248 -3 242 -2z"/>
<path d="M1017 5953 c-4 -3 -7 -11 -7 -17 0 -6 5 -5 12 2 6 6 9 14 7 17 -3 3
-9 2 -12 -2z"/>
<path d="M1238 5953 c123 -2 202 -7 202 -13 0 -6 -78 -11 -202 -12 l-203 -2
220 -6 c121 -3 222 -4 224 -2 2 1 -3 2 -11 2 -9 0 -18 9 -21 20 -5 19 -13 20
-209 18 l-203 -3 203 -2z"/>
<path d="M1475 5950 c3 -5 8 -10 11 -10 2 0 4 5 4 10 0 6 -5 10 -11 10 -5 0
-7 -4 -4 -10z"/>
<path d="M2120 5953 c66 -2 120 -8 120 -13 0 -5 -55 -11 -122 -13 l-123 -3
128 -2 c118 -2 128 -1 125 16 -3 15 -17 17 -126 17 l-122 1 120 -3z"/>
<path d="M2370 5949 c0 -5 5 -7 10 -4 6 3 10 8 10 11 0 2 -4 4 -10 4 -5 0 -10
-5 -10 -11z"/>
<path d="M2438 5953 c53 -5 55 -23 3 -23 -22 0 -42 -3 -44 -7 -3 -5 15 -6 39
-5 l44 4 3 -209 2 -208 3 228 2 227 -47 -2 -48 -1 43 -4z"/>
<path d="M3017 5953 c-4 -3 -7 -11 -7 -17 0 -6 5 -5 12 2 6 6 9 14 7 17 -3 3
-9 2 -12 -2z"/>
<path d="M3238 5953 c123 -2 202 -7 202 -13 0 -6 -78 -11 -202 -12 l-203 -2
220 -6 c121 -3 222 -4 224 -2 2 1 -3 2 -11 2 -9 0 -18 9 -21 20 -5 19 -13 20
-209 18 l-203 -3 203 -2z"/>
<path d="M3475 5950 c3 -5 8 -10 11 -10 2 0 4 5 4 10 0 6 -5 10 -11 10 -5 0
-7 -4 -4 -10z"/>
<path d="M5017 5953 c-4 -3 -7 -11 -7 -17 0 -6 5 -5 12 2 6 6 9 14 7 17 -3 3
-9 2 -12 -2z"/>
<path d="M5058 5953 c12 -2 32 -2 45 0 12 2 2 4 -23 4 -25 0 -35 -2 -22 -4z"/>
<path d="M5130 5895 c0 -36 4 -65 9 -65 5 0 7 27 5 59 -3 50 -1 60 14 64 12 3
11 5 -5 6 -22 1 -23 -3 -23 -64z"/>
<path d="M5475 5950 c3 -5 8 -10 11 -10 2 0 4 5 4 10 0 6 -5 10 -11 10 -5 0
-7 -4 -4 -10z"/>
<path d="M6118 5953 c68 -2 176 -2 240 0 64 1 9 3 -123 3 -132 0 -185 -2 -117
-3z"/>
<path d="M2267 5929 c4 -16 8 -17 14 -7 13 19 11 28 -5 28 -9 0 -12 -7 -9 -21z"/>
<path d="M5058 5923 c12 -2 32 -2 45 0 12 2 2 4 -23 4 -25 0 -35 -2 -22 -4z"/>
<path d="M6118 5923 c68 -2 176 -2 240 0 64 1 9 3 -123 3 -132 0 -185 -2 -117
-3z"/>
<path d="M3017 5913 c-10 -9 -9 -413 1 -413 4 0 7 95 7 210 0 116 0 210 -1
210 0 0 -4 -3 -7 -7z"/>
<path d="M5017 5913 c-10 -9 -9 -413 1 -413 4 0 7 95 7 210 0 116 0 210 -1
210 0 0 -4 -3 -7 -7z"/>
<path d="M5330 5888 c0 -19 2 -20 10 -8 13 19 13 30 0 30 -5 0 -10 -10 -10
-22z"/>
<path d="M5160 5844 c0 -14 4 -23 9 -20 5 3 7 15 4 26 -7 28 -13 25 -13 -6z"/>
<path d="M1320 5819 c0 -5 5 -7 10 -4 6 3 10 1 10 -4 0 -6 5 -11 10 -11 6 0
10 7 10 15 0 8 -9 15 -20 15 -11 0 -20 -5 -20 -11z"/>
<path d="M4052 5823 c9 -2 19 -12 21 -21 3 -12 5 -10 6 6 1 17 -4 22 -21 21
-16 -1 -18 -3 -6 -6z"/>
<path d="M5143 5794 c-3 -8 -1 -20 6 -27 8 -8 11 -4 11 16 0 30 -7 35 -17 11z"/>
<path d="M1031 5744 c0 -11 3 -14 6 -6 3 7 2 16 -1 19 -3 4 -6 -2 -5 -13z"/>
<path d="M2117 5713 c-4 -3 -7 -13 -7 -22 1 -13 3 -13 11 2 11 19 8 33 -4 20z"/>
<path d="M4152 5695 c0 -16 2 -22 5 -12 2 9 2 23 0 30 -3 6 -5 -1 -5 -18z"/>
<path d="M2080 5675 c0 -8 4 -15 10 -15 5 0 7 7 4 15 -4 8 -8 15 -10 15 -2 0
-4 -7 -4 -15z"/>
<path d="M2000 5660 c0 -5 6 -10 14 -10 8 0 17 -8 19 -17 4 -17 5 -17 6 -1 0
10 -8 22 -19 28 -14 7 -20 7 -20 0z"/>
<path d="M3170 5660 c0 -5 5 -10 11 -10 5 0 7 5 4 10 -3 6 -8 10 -11 10 -2 0
-4 -4 -4 -10z"/>
<path d="M5351 5654 c0 -11 3 -14 6 -6 3 7 2 16 -1 19 -3 4 -6 -2 -5 -13z"/>
<path d="M2367 5633 c-4 -3 -7 -16 -6 -27 0 -19 1 -19 10 3 10 24 8 36 -4 24z"/>
<path d="M5122 5595 c0 -16 2 -22 5 -12 2 9 2 23 0 30 -3 6 -5 -1 -5 -18z"/>
<path d="M5148 5605 c-4 -4 -4 -13 -2 -20 3 -7 1 -16 -5 -20 -6 -3 -11 -16
-11 -28 1 -20 2 -20 16 6 15 27 16 76 2 62z"/>
<path d="M3254 5574 c26 -25 78 -36 94 -20 20 20 6 36 -31 35 l-32 -2 35 -7
c29 -5 32 -8 17 -15 -12 -5 -31 -2 -53 9 -43 20 -50 20 -30 0z"/>
<path d="M4348 5583 c7 -3 16 -2 19 1 4 3 -2 6 -13 5 -11 0 -14 -3 -6 -6z"/>
<path d="M3130 5541 c0 -5 6 -14 14 -20 12 -10 13 -8 9 8 -5 21 -23 30 -23 12z"/>
<path d="M5441 5494 c0 -11 3 -14 6 -6 3 7 2 16 -1 19 -3 4 -6 -2 -5 -13z"/>
<path d="M1470 5489 c0 -5 5 -7 10 -4 6 3 10 8 10 11 0 2 -4 4 -10 4 -5 0 -10
-5 -10 -11z"/>
<path d="M5470 5489 c0 -5 5 -7 10 -4 6 3 10 8 10 11 0 2 -4 4 -10 4 -5 0 -10
-5 -10 -11z"/>
<path d="M515 5450 c-3 -5 -1 -10 4 -10 6 0 11 5 11 10 0 6 -2 10 -4 10 -3 0
-8 -4 -11 -10z"/>
<path d="M1766 5451 c-4 -7 -5 -15 -2 -18 9 -9 19 4 14 18 -4 11 -6 11 -12 0z"/>
<path d="M2515 5450 c-3 -5 -1 -10 4 -10 6 0 11 5 11 10 0 6 -2 10 -4 10 -3 0
-8 -4 -11 -10z"/>
<path d="M2551 5444 c0 -11 3 -14 6 -6 3 7 2 16 -1 19 -3 4 -6 -2 -5 -13z"/>
<path d="M3938 5453 c7 -3 16 -2 19 1 4 3 -2 6 -13 5 -11 0 -14 -3 -6 -6z"/>
<path d="M2964 5427 c-2 -7 -3 -82 -1 -167 l3 -155 4 165 4 165 6 -205 6 -205
2 208 c1 137 -1 207 -8 207 -6 0 -13 -6 -16 -13z"/>
<path d="M3953 5424 c30 -36 40 -45 46 -39 3 4 -2 11 -12 17 -17 9 -17 11 -1
22 15 11 13 13 -14 14 -27 1 -30 -2 -19 -14z"/>
<path d="M4538 5433 c7 -3 16 -2 19 1 4 3 -2 6 -13 5 -11 0 -14 -3 -6 -6z"/>
<path d="M1708 5423 c7 -3 16 -2 19 1 4 3 -2 6 -13 5 -11 0 -14 -3 -6 -6z"/>
<path d="M3673 5423 c9 -2 25 -2 35 0 9 3 1 5 -18 5 -19 0 -27 -2 -17 -5z"/>
<path d="M3825 5420 c3 -5 8 -10 11 -10 2 0 4 5 4 10 0 6 -5 10 -11 10 -5 0
-7 -4 -4 -10z"/>
<path d="M5515 5210 l0 -225 245 0 245 -1 -242 3 c-147 2 -243 7 -243 13 0 6
95 11 243 13 l242 2 -242 3 -243 2 -3 208 -3 207 1 -225z"/>
<path d="M1630 5398 c0 -19 2 -20 10 -8 13 19 13 30 0 30 -5 0 -10 -10 -10
-22z"/>
<path d="M1601 5374 c0 -11 3 -14 6 -6 3 7 2 16 -1 19 -3 4 -6 -2 -5 -13z"/>
<path d="M1538 5343 c7 -3 16 -2 19 1 4 3 -2 6 -13 5 -11 0 -14 -3 -6 -6z"/>
<path d="M4786 5335 c4 -8 8 -15 10 -15 2 0 4 7 4 15 0 8 -4 15 -10 15 -5 0
-7 -7 -4 -15z"/>
<path d="M4880 5320 c0 -6 7 -10 15 -10 8 0 15 2 15 4 0 2 -7 6 -15 10 -8 3
-15 1 -15 -4z"/>
<path d="M3657 5129 c7 -7 15 -10 18 -7 3 3 -2 9 -12 12 -14 6 -15 5 -6 -5z"/>
<path d="M3628 5113 c7 -3 16 -2 19 1 4 3 -2 6 -13 5 -11 0 -14 -3 -6 -6z"/>
<path d="M983 5070 c0 -25 2 -35 4 -22 2 12 2 32 0 45 -2 12 -4 2 -4 -23z"/>
<path d="M3680 5040 c0 -6 7 -10 15 -10 8 0 15 2 15 4 0 2 -7 6 -15 10 -8 3
-15 1 -15 -4z"/>
<path d="M970 4994 c0 -8 5 -12 10 -9 6 3 10 10 10 16 0 5 -4 9 -10 9 -5 0
-10 -7 -10 -16z"/>
<path d="M2512 4999 c2 -7 10 -15 17 -17 8 -3 12 1 9 9 -2 7 -10 15 -17 17 -8
3 -12 -1 -9 -9z"/>
<path d="M3870 4999 c0 -11 25 -22 39 -17 6 1 -1 8 -14 15 -14 6 -25 7 -25 2z"/>
<path d="M2578 4983 c12 -2 32 -2 45 0 12 2 2 4 -23 4 -25 0 -35 -2 -22 -4z"/>
<path d="M1010 4945 c0 -8 5 -15 10 -15 6 0 10 7 10 15 0 8 -4 15 -10 15 -5 0
-10 -7 -10 -15z"/>
<path d="M1058 4944 c12 -8 22 -22 22 -31 0 -9 2 -14 5 -11 4 3 3 17 -1 32 -4
18 -13 26 -27 26 -21 0 -21 0 1 -16z"/>
<path d="M2328 4953 c6 -2 18 -2 25 0 6 3 1 5 -13 5 -14 0 -19 -2 -12 -5z"/>
<path d="M3138 4953 c12 -2 32 -2 45 0 12 2 2 4 -23 4 -25 0 -35 -2 -22 -4z"/>
<path d="M5454 4947 c-3 -8 -4 -30 -1 -49 3 -30 4 -29 5 10 1 23 6 42 11 42 6
0 12 -19 14 -42 l4 -43 -1 44 c-1 44 -20 67 -32 38z"/>
<path d="M1041 4933 c0 -4 4 -17 9 -28 8 -19 9 -19 9 2 1 12 -3 25 -9 28 -5 3
-10 3 -9 -2z"/>
<path d="M4010 4870 c4 -22 3 -40 -1 -40 -5 0 -9 -5 -9 -11 0 -8 4 -8 14 0 17
14 16 83 -1 88 -7 3 -8 -9 -3 -37z"/>
<path d="M1013 4835 c0 -22 2 -30 4 -17 2 12 2 30 0 40 -3 9 -5 -1 -4 -23z"/>
<path d="M3249 4857 c7 -7 14 -8 21 -1 6 6 2 10 -12 11 -16 2 -18 -1 -9 -10z"/>
<path d="M4050 4830 c0 -10 50 -23 58 -15 3 3 -2 5 -12 5 -9 0 -15 4 -12 8 2
4 -4 9 -15 9 -10 1 -19 -2 -19 -7z"/>
<path d="M4113 4833 c9 -2 17 -9 17 -14 0 -5 7 -9 16 -9 8 0 13 -4 10 -8 -3
-5 1 -9 9 -9 8 0 15 3 15 6 0 9 -60 41 -73 40 -7 -1 -4 -3 6 -6z"/>
<path d="M4030 4799 c0 -5 5 -7 10 -4 6 3 10 8 10 11 0 2 -4 4 -10 4 -5 0 -10
-5 -10 -11z"/>
<path d="M4118 4793 c7 -3 16 -2 19 1 4 3 -2 6 -13 5 -11 0 -14 -3 -6 -6z"/>
<path d="M2150 4775 c0 -8 2 -15 4 -15 2 0 6 7 10 15 3 8 1 15 -4 15 -6 0 -10
-7 -10 -15z"/>
<path d="M4230 4743 c0 -13 5 -23 10 -23 13 0 13 11 0 30 -8 12 -10 11 -10 -7z"/>
<path d="M4200 4719 c0 -5 5 -7 10 -4 6 3 10 8 10 11 0 2 -4 4 -10 4 -5 0 -10
-5 -10 -11z"/>
<path d="M4241 4694 c0 -11 3 -14 6 -6 3 7 2 16 -1 19 -3 4 -6 -2 -5 -13z"/>
<path d="M4265 4660 c3 -5 8 -10 11 -10 2 0 4 5 4 10 0 6 -5 10 -11 10 -5 0
-7 -4 -4 -10z"/>
<path d="M5595 4620 c-3 -5 -1 -10 4 -10 6 0 11 5 11 10 0 6 -2 10 -4 10 -3 0
-8 -4 -11 -10z"/>
<path d="M350 4586 c0 -8 5 -18 10 -21 6 -3 10 3 10 14 0 12 -4 21 -10 21 -5
0 -10 -6 -10 -14z"/>
<path d="M5680 4581 c0 -11 4 -22 9 -25 11 -7 23 22 15 35 -9 16 -24 10 -24
-10z"/>
<path d="M330 4560 c0 -5 5 -10 11 -10 5 0 7 5 4 10 -3 6 -8 10 -11 10 -2 0
-4 -4 -4 -10z"/>
<path d="M3200 4558 c0 -4 -14 -8 -30 -8 -35 0 -49 -23 -31 -52 6 -10 9 -23 6
-28 -4 -6 2 -13 12 -17 27 -10 31 -21 26 -63 -4 -31 -1 -40 23 -59 22 -17 39
-21 78 -19 31 2 51 8 54 17 3 9 -2 11 -17 6 -30 -9 -27 13 4 25 42 16 49 75
16 132 -17 28 -33 39 -81 55 -33 11 -60 16 -60 11z"/>
<path d="M4240 4519 c0 -5 5 -7 10 -4 6 3 10 8 10 11 0 2 -4 4 -10 4 -5 0 -10
-5 -10 -11z"/>
<path d="M401 4510 c-1 -21 16 -46 26 -37 4 5 3 11 -3 15 -6 4 -14 14 -17 22
-5 13 -5 13 -6 0z"/>
<path d="M4285 4510 c-3 -6 1 -7 9 -4 18 7 21 14 7 14 -6 0 -13 -4 -16 -10z"/>
<path d="M4255 4491 c-3 -5 -1 -12 5 -16 5 -3 10 1 10 9 0 18 -6 21 -15 7z"/>
<path d="M3615 4460 c3 -5 13 -10 21 -10 8 0 14 5 14 10 0 6 -9 10 -21 10 -11
0 -17 -4 -14 -10z"/>
<path d="M3892 4450 c0 -14 2 -19 5 -12 2 6 2 18 0 25 -3 6 -5 1 -5 -13z"/>
<path d="M5810 4405 c-10 -13 -9 -15 9 -15 12 0 21 6 21 15 0 8 -4 15 -9 15
-5 0 -14 -7 -21 -15z"/>
<path d="M3936 4361 c-4 -7 -5 -15 -2 -18 9 -9 19 4 14 18 -4 11 -6 11 -12 0z"/>
<path d="M5820 4270 c0 -5 5 -10 10 -10 6 0 10 5 10 10 0 6 -4 10 -10 10 -5 0
-10 -4 -10 -10z"/>
<path d="M5862 4238 c-17 -17 -15 -38 3 -38 9 0 15 9 15 25 0 29 -1 30 -18 13z"/>
<path d="M5992 4180 c-18 -24 -19 -30 -7 -30 8 0 15 -4 15 -9 0 -5 -9 -7 -20
-4 -14 4 -20 0 -20 -11 0 -15 4 -18 31 -20 14 -1 41 86 31 96 -5 5 -18 -5 -30
-22z"/>
<path d="M508 4153 c7 -3 16 -2 19 1 4 3 -2 6 -13 5 -11 0 -14 -3 -6 -6z"/>
<path d="M567 4057 c-11 -29 -9 -43 4 -30 6 6 9 19 7 29 -3 18 -4 18 -11 1z"/>
<path d="M237 3953 c323 -4 323 -22 1 -26 l-243 -2 242 -3 243 -2 3 -207 2
-208 3 228 2 227 -247 -2 -248 -3 242 -2z"/>
<path d="M6150 3953 c0 -5 48 -7 107 -5 200 5 219 8 56 10 -90 1 -163 -1 -163
-5z"/>
<path d="M6238 3923 c46 -2 118 -2 160 0 42 1 5 3 -83 3 -88 0 -123 -2 -77 -3z"/>
<path d="M6108 3913 c7 -3 16 -2 19 1 4 3 -2 6 -13 5 -11 0 -14 -3 -6 -6z"/>
<path d="M6072 3890 c0 -14 2 -19 5 -12 2 6 2 18 0 25 -3 6 -5 1 -5 -13z"/>
<path d="M3792 3770 c0 -14 2 -19 5 -12 2 6 2 18 0 25 -3 6 -5 1 -5 -13z"/>
<path d="M5984 3760 c3 -14 6 -28 6 -32 0 -5 5 -8 10 -8 15 0 12 24 -6 46 -15
18 -15 18 -10 -6z"/>
<path d="M6135 3740 c-3 -5 -1 -10 4 -10 6 0 11 5 11 10 0 6 -2 10 -4 10 -3 0
-8 -4 -11 -10z"/>
<path d="M6080 3710 c0 -13 5 -20 13 -17 6 2 12 10 12 17 0 7 -6 15 -12 18 -8
2 -13 -5 -13 -18z"/>
<path d="M6135 3680 c3 -5 8 -10 11 -10 2 0 4 5 4 10 0 6 -5 10 -11 10 -5 0
-7 -4 -4 -10z"/>
<path d="M1005 3640 c3 -5 8 -10 11 -10 2 0 4 5 4 10 0 6 -5 10 -11 10 -5 0
-7 -4 -4 -10z"/>
<path d="M515 3450 c-3 -5 -1 -10 4 -10 6 0 11 5 11 10 0 6 -2 10 -4 10 -3 0
-8 -4 -11 -10z"/>
<path d="M551 3444 c0 -11 3 -14 6 -6 3 7 2 16 -1 19 -3 4 -6 -2 -5 -13z"/>
<path d="M968 3453 c7 -3 16 -2 19 1 4 3 -2 6 -13 5 -11 0 -14 -3 -6 -6z"/>
<path d="M978 3348 c-1 -62 -3 -71 -7 -38 l-5 45 -5 -45 c-5 -35 -10 -45 -23
-44 -10 1 -18 -4 -18 -12 0 -8 7 -14 15 -14 11 0 14 -16 11 -81 -1 -44 2 -83
6 -85 5 -3 6 -15 2 -26 -4 -13 -2 -18 4 -14 5 3 13 -5 16 -19 16 -63 53 9 51
98 -1 33 -6 62 -12 65 -18 12 -26 65 -24 160 1 50 0 92 -3 92 -3 0 -7 -37 -8
-82z"/>
<path d="M5971 3252 c-11 -34 -12 -45 -2 -55 10 -9 11 -8 5 6 -3 9 -1 24 6 32
6 7 10 24 8 37 -2 18 -6 15 -17 -20z"/>
<path d="M897 3208 c-4 -27 -9 -59 -13 -73 -4 -15 -2 -25 4 -25 6 0 13 19 15
43 l4 42 1 -47 c1 -27 -2 -48 -7 -48 -5 0 -11 -16 -13 -35 -2 -19 -1 -35 3
-35 13 0 31 91 27 135 -4 35 -2 45 9 45 8 0 11 5 8 10 -4 6 -10 8 -15 5 -5 -3
-10 3 -12 12 -2 10 -7 -3 -11 -29z"/>
<path d="M881 3214 c0 -11 3 -14 6 -6 3 7 2 16 -1 19 -3 4 -6 -2 -5 -13z"/>
<path d="M932 3135 c0 -16 2 -22 5 -12 2 9 2 23 0 30 -3 6 -5 -1 -5 -18z"/>
<path d="M5833 3060 c-3 -11 -10 -20 -17 -20 -6 0 -3 -5 8 -11 11 -7 14 -14 8
-18 -6 -4 21 -5 61 -3 109 5 121 9 30 11 -76 1 -108 13 -65 24 16 4 16 5 0 6
-26 2 -22 19 5 24 22 4 22 4 -1 6 -16 1 -26 -6 -29 -19z"/>
<path d="M927 3063 c-4 -3 -7 -13 -7 -22 1 -13 3 -13 11 2 11 19 8 33 -4 20z"/>
<path d="M5888 3038 c5 -5 16 -8 23 -6 8 3 3 7 -10 11 -17 4 -21 3 -13 -5z"/>
<path d="M532 3022 c9 -2 18 -12 21 -23 5 -18 15 -19 211 -19 178 0 206 2 206
15 0 9 -6 18 -12 20 -7 2 -110 6 -228 7 -118 2 -207 2 -198 0z m428 -22 c0 -6
-73 -10 -200 -10 -127 0 -200 4 -200 10 0 6 73 10 200 10 127 0 200 -4 200
-10z"/>
<path d="M510 2990 c0 -5 5 -10 11 -10 5 0 7 5 4 10 -3 6 -8 10 -11 10 -2 0
-4 -4 -4 -10z"/>
<path d="M5863 2983 c26 -2 68 -2 95 0 26 2 4 3 -48 3 -52 0 -74 -1 -47 -3z"/>
<path d="M484 2715 c0 -137 2 -195 3 -128 2 67 2 179 0 250 -1 70 -3 16 -3
-122z"/>
<path d="M5431 2784 c0 -11 3 -14 6 -6 3 7 2 16 -1 19 -3 4 -6 -2 -5 -13z"/>
<path d="M5410 2745 c0 -8 5 -15 10 -15 6 0 10 7 10 15 0 8 -4 15 -10 15 -5 0
-10 -7 -10 -15z"/>
<path d="M5755 2460 c-3 -5 -2 -10 4 -10 5 0 13 5 16 10 3 6 2 10 -4 10 -5 0
-13 -4 -16 -10z"/>
<path d="M5808 2463 c7 -3 16 -2 19 1 4 3 -2 6 -13 5 -11 0 -14 -3 -6 -6z"/>
<path d="M561 2444 c0 -11 3 -14 6 -6 3 7 2 16 -1 19 -3 4 -6 -2 -5 -13z"/>
<path d="M5831 2434 c0 -11 3 -14 6 -6 3 7 2 16 -1 19 -3 4 -6 -2 -5 -13z"/>
<path d="M586 2424 c-9 -24 -7 -27 9 -10 17 17 19 26 6 26 -5 0 -12 -7 -15
-16z"/>
<path d="M5790 2431 c0 -5 5 -13 10 -16 6 -3 10 -2 10 4 0 5 -4 13 -10 16 -5
3 -10 2 -10 -4z"/>
<path d="M630 2421 c0 -5 5 -13 10 -16 6 -3 10 -2 10 4 0 5 -4 13 -10 16 -5 3
-10 2 -10 -4z"/>
<path d="M5793 2362 c-3 -12 -9 -22 -14 -22 -5 0 -9 -7 -9 -15 0 -8 3 -15 8
-15 10 0 35 60 28 68 -4 3 -9 -4 -13 -16z"/>
<path d="M5720 2340 c0 -5 4 -10 9 -10 6 0 13 5 16 10 3 6 -1 10 -9 10 -9 0
-16 -4 -16 -10z"/>
<path d="M5817 2343 c-10 -9 -8 -33 2 -33 5 0 11 9 14 20 5 20 -3 26 -16 13z"/>
<path d="M642 2300 c0 -14 2 -19 5 -12 2 6 2 18 0 25 -3 6 -5 1 -5 -13z"/>
<path d="M5640 2255 c-14 -16 -10 -18 14 -9 9 3 16 10 16 15 0 14 -16 11 -30
-6z"/>
<path d="M750 2250 c0 -5 5 -10 10 -10 6 0 10 5 10 10 0 6 -4 10 -10 10 -5 0
-10 -4 -10 -10z"/>
<path d="M805 2190 c-3 -5 1 -10 10 -10 9 0 13 5 10 10 -3 6 -8 10 -10 10 -2
0 -7 -4 -10 -10z"/>
<path d="M5587 2143 c-10 -9 -9 -63 1 -63 4 0 8 16 8 35 0 38 0 38 -9 28z"/>
<path d="M900 2056 c0 -8 5 -18 10 -21 6 -3 10 1 10 9 0 8 -4 18 -10 21 -5 3
-10 -1 -10 -9z"/>
<path d="M5559 2031 l-26 -38 28 0 c26 0 47 22 34 35 -3 3 -5 0 -5 -6 0 -7 -4
-12 -10 -12 -14 0 -13 27 2 32 6 2 9 9 7 15 -2 6 -16 -6 -30 -26z"/>
<path d="M881 2024 c0 -11 3 -14 6 -6 3 7 2 16 -1 19 -3 4 -6 -2 -5 -13z"/>
<path d="M900 2001 c0 -6 5 -13 10 -16 6 -3 10 1 10 9 0 9 -4 16 -10 16 -5 0
-10 -4 -10 -9z"/>
<path d="M237 1953 c323 -4 323 -22 1 -26 l-243 -2 242 -3 243 -2 3 -207 2
-208 3 228 2 227 -247 -2 -248 -3 242 -2z"/>
<path d="M6118 1953 c68 -2 176 -2 240 0 64 1 9 3 -123 3 -132 0 -185 -2 -117
-3z"/>
<path d="M6118 1923 c68 -2 176 -2 240 0 64 1 9 3 -123 3 -132 0 -185 -2 -117
-3z"/>
<path d="M1012 1708 c-1 -115 1 -208 6 -208 4 0 6 62 4 137 -4 255 -8 279 -10
71z"/>
<path d="M5312 1880 c-10 -17 -10 -20 3 -20 8 0 15 9 15 20 0 11 -1 20 -3 20
-1 0 -8 -9 -15 -20z"/>
<path d="M5267 1839 c-5 -20 0 -24 19 -11 9 5 8 10 -1 19 -10 9 -14 8 -18 -8z"/>
<path d="M1047 1793 c1 -41 6 -60 22 -74 24 -23 27 -13 6 15 -8 11 -15 36 -15
55 0 20 -4 41 -8 48 -4 6 -6 -14 -5 -44z"/>
<path d="M5262 1788 c-14 -14 -16 -28 -3 -28 9 0 24 30 18 36 -2 2 -9 -2 -15
-8z"/>
<path d="M1050 1703 c0 -15 23 -33 42 -33 10 0 18 4 18 10 0 5 -6 7 -14 4 -7
-3 -21 2 -30 11 -9 9 -16 13 -16 8z"/>
<path d="M1121 1655 c-1 -23 41 -55 47 -36 2 6 10 11 18 11 8 0 14 5 14 10 0
13 -13 13 -26 0 -14 -14 -42 -3 -47 18 -4 13 -5 13 -6 -3z"/>
<path d="M1286 1645 c-3 -8 -3 -22 0 -30 7 -17 64 -48 64 -34 0 5 -4 9 -8 9
-11 0 -52 35 -52 44 0 3 7 6 16 6 8 0 12 5 9 10 -9 15 -22 12 -29 -5z"/>
<path d="M5090 1620 c0 -5 5 -10 10 -10 6 0 10 5 10 10 0 6 -4 10 -10 10 -5 0
-10 -4 -10 -10z"/>
<path d="M1120 1611 c0 -6 4 -13 10 -16 6 -3 7 1 4 9 -7 18 -14 21 -14 7z"/>
<path d="M1182 1604 c-7 -8 -8 -14 -3 -14 10 0 25 19 20 25 -2 1 -10 -3 -17
-11z"/>
<path d="M5140 1586 c0 -2 7 -6 15 -10 8 -3 15 -1 15 4 0 6 -7 10 -15 10 -8 0
-15 -2 -15 -4z"/>
<path d="M5185 1560 c3 -5 8 -10 11 -10 2 0 4 5 4 10 0 6 -5 10 -11 10 -5 0
-7 -4 -4 -10z"/>
<path d="M1322 1530 c0 -14 2 -19 5 -12 2 6 2 18 0 25 -3 6 -5 1 -5 -13z"/>
<path d="M5278 1503 c6 -2 18 -2 25 0 6 3 1 5 -13 5 -14 0 -19 -2 -12 -5z"/>
<path d="M5441 1494 c0 -11 3 -14 6 -6 3 7 2 16 -1 19 -3 4 -6 -2 -5 -13z"/>
<path d="M5470 1489 c0 -5 5 -7 10 -4 6 3 10 8 10 11 0 2 -4 4 -10 4 -5 0 -10
-5 -10 -11z"/>
<path d="M5338 1483 c7 -3 16 -2 19 1 4 3 -2 6 -13 5 -11 0 -14 -3 -6 -6z"/>
<path d="M515 1450 c-3 -5 -1 -10 4 -10 6 0 11 5 11 10 0 6 -2 10 -4 10 -3 0
-8 -4 -11 -10z"/>
<path d="M551 1444 c0 -11 3 -14 6 -6 3 7 2 16 -1 19 -3 4 -6 -2 -5 -13z"/>
<path d="M967 1433 c-12 -11 -8 -401 3 -408 6 -4 8 -15 5 -26 -4 -11 -2 -19 4
-19 8 0 11 74 11 230 0 210 -3 243 -23 223z m10 -305 c-1 -57 -3 -11 -3 102 0
113 2 159 3 103 2 -57 2 -149 0 -205z"/>
<path d="M5515 1210 l0 -225 245 0 245 -1 -242 3 c-147 2 -243 7 -243 13 0 6
95 11 243 13 l242 2 -242 3 -243 2 -3 208 -3 207 1 -225z"/>
<path d="M4962 1165 c-1 -17 -7 -36 -14 -43 -9 -9 -9 -12 0 -12 7 0 12 -15 12
-39 0 -22 5 -43 10 -46 6 -4 8 -15 5 -26 -4 -11 -2 -19 4 -19 7 0 10 37 9 108
l-2 107 -6 -85 -6 -85 -5 85 c-3 47 -6 71 -7 55z"/>
<path d="M4895 1120 c-3 -5 3 -10 15 -10 12 0 18 5 15 10 -3 6 -10 10 -15 10
-5 0 -12 -4 -15 -10z"/>
<path d="M4850 1100 c0 -11 4 -20 9 -20 5 0 11 9 14 20 3 13 0 20 -9 20 -8 0
-14 -9 -14 -20z"/>
<path d="M4814 1059 c-3 -6 -2 -15 4 -21 7 -7 14 -3 21 11 10 17 9 21 -3 21
-8 0 -18 -5 -22 -11z"/>
<path d="M1625 1030 c3 -5 8 -10 11 -10 2 0 4 5 4 10 0 6 -5 10 -11 10 -5 0
-7 -4 -4 -10z"/>
<path d="M532 1022 c9 -2 18 -12 21 -23 5 -18 14 -19 209 -17 l203 3 -202 2
c-271 4 -271 22 0 25 111 1 182 3 157 5 -64 4 -407 9 -388 5z"/>
<path d="M510 990 c0 -5 5 -10 11 -10 5 0 7 5 4 10 -3 6 -8 10 -11 10 -2 0 -4
-4 -4 -10z"/>
<path d="M1615 980 c3 -5 11 -10 16 -10 6 0 7 5 4 10 -3 6 -11 10 -16 10 -6 0
-7 -4 -4 -10z"/>
<path d="M484 715 c0 -137 2 -195 3 -128 2 67 2 179 0 250 -1 70 -3 16 -3
-122z"/>
<path d="M1012 713 l3 -248 2 240 c3 176 7 241 16 247 8 5 7 8 -5 8 -17 0 -18
-18 -16 -247z"/>
<path d="M5012 713 l3 -248 2 240 c3 176 7 241 16 247 8 5 7 8 -5 8 -17 0 -18
-18 -16 -247z"/>
<path d="M2230 758 c-10 -21 -10 -22 4 -5 14 18 15 18 24 0 6 -10 13 -15 16
-12 4 3 -3 14 -13 23 -19 17 -20 17 -31 -6z"/>
<path d="M2187 743 c-11 -13 -17 -27 -14 -30 3 -2 13 7 23 21 22 34 15 42 -9
9z"/>
<path d="M4365 740 c-3 -5 3 -10 14 -10 12 0 21 5 21 10 0 6 -6 10 -14 10 -8
0 -18 -4 -21 -10z"/>
<path d="M2236 723 c-6 -14 -5 -15 5 -6 7 7 10 15 7 18 -3 3 -9 -2 -12 -12z"/>
<path d="M2205 720 c-3 -5 -1 -10 4 -10 6 0 11 5 11 10 0 6 -2 10 -4 10 -3 0
-8 -4 -11 -10z"/>
<path d="M2313 709 c9 -5 17 -20 17 -33 0 -28 25 -54 33 -34 4 10 8 10 16 -2
6 -8 11 -10 11 -4 0 5 -7 19 -15 30 -13 18 -14 18 -15 1 0 -10 -4 -16 -10 -12
-5 3 -7 12 -4 20 7 16 -18 45 -38 45 -8 0 -7 -4 5 -11z"/>
<path d="M4348 713 c7 -3 16 -2 19 1 4 3 -2 6 -13 5 -11 0 -14 -3 -6 -6z"/>
<path d="M4141 624 c-12 -15 -18 -30 -15 -33 4 -3 9 0 11 7 3 7 12 19 20 28 8
8 13 17 10 20 -2 3 -14 -7 -26 -22z"/>
<path d="M2400 632 c0 -19 31 -70 47 -76 27 -11 27 3 0 25 -15 11 -27 27 -27
34 0 8 -4 17 -10 20 -5 3 -10 2 -10 -3z"/>
<path d="M4060 580 c-12 -8 -9 -10 13 -10 15 0 27 5 27 10 0 13 -20 13 -40 0z"/>
<path d="M4140 570 c0 -5 5 -10 10 -10 6 0 10 5 10 10 0 6 -4 10 -10 10 -5 0
-10 -4 -10 -10z"/>
<path d="M2483 510 c0 -25 2 -35 4 -22 2 12 2 32 0 45 -2 12 -4 2 -4 -23z"/>
<path d="M3336 499 c-11 -11 -15 -19 -9 -19 12 0 38 28 32 34 -2 2 -13 -5 -23
-15z"/>
<path d="M964 235 c0 -132 2 -185 3 -117 2 68 2 176 0 240 -1 64 -3 9 -3 -123z"/>
<path d="M984 235 c0 -132 2 -185 3 -117 2 68 2 176 0 240 -1 64 -3 9 -3 -123z"/>
<path d="M1514 235 c0 -132 2 -185 3 -117 2 68 2 176 0 240 -1 64 -3 9 -3
-123z"/>
<path d="M3514 235 c0 -132 2 -185 3 -117 2 68 2 176 0 240 -1 64 -3 9 -3
-123z"/>
<path d="M4964 235 c0 -132 2 -185 3 -117 2 68 2 176 0 240 -1 64 -3 9 -3
-123z"/>
<path d="M4984 235 c0 -132 2 -185 3 -117 2 68 2 176 0 240 -1 64 -3 9 -3
-123z"/>
<path d="M5514 235 c0 -132 2 -185 3 -117 2 68 2 176 0 240 -1 64 -3 9 -3
-123z"/>
<path d="M2735 360 c28 -12 47 -12 40 0 -3 6 -18 10 -33 9 -24 0 -25 -1 -7 -9z"/>
<path d="M2958 338 c5 -18 7 -19 10 -6 2 9 11 19 20 21 10 3 6 5 -10 6 -22 1
-25 -2 -20 -21z"/>
<path d="M2728 333 c6 -2 18 -2 25 0 6 3 1 5 -13 5 -14 0 -19 -2 -12 -5z"/>
<path d="M2850 330 l-35 -7 35 -1 c19 0 46 4 60 8 l25 8 -25 0 c-14 0 -41 -4
-60 -8z"/>
<path d="M2984 165 c0 -94 2 -133 3 -88 2 45 2 122 0 170 -1 48 -3 12 -3 -82z"/>
<path d="M2743 313 c9 -2 23 -2 30 0 6 3 -1 5 -18 5 -16 0 -22 -2 -12 -5z"/>
<path d="M2964 155 c0 -88 2 -123 3 -77 2 46 2 118 0 160 -1 42 -3 5 -3 -83z"/>
</g>
</svg>
